<?xml version="1.0" encoding="UTF-8"?>
<svg version="1.1" xmlns="http://www.w3.org/2000/svg" width="500" height="500">
<path d="M0 0 C6.83242044 6.92933421 7.95745634 13.87854053 7.96704102 23.26513672 C7.55155225 45.21966122 -7.6906939 64.72657256 -21.34765625 80.67578125 C-21.97414063 81.41441406 -22.600625 82.15304688 -23.24609375 82.9140625 C-28.54521707 88.97768385 -34.2293871 94.65961896 -39.91015625 100.36328125 C-40.71372559 101.17152344 -41.51729492 101.97976562 -42.34521484 102.8125 C-61.81549165 122.23087736 -84.27717062 138.79806996 -107.34765625 153.67578125 C-108.04761719 154.13130371 -108.74757813 154.58682617 -109.46875 155.05615234 C-126.87004432 166.36011265 -144.82442538 176.72439096 -163.50439453 185.76953125 C-165.33969353 186.67186633 -167.15536547 187.60526214 -168.96875 188.55078125 C-203.17579893 206.29661755 -241.06460231 220.34730479 -279.34765625 225.67578125 C-280.01095947 225.76859375 -280.6742627 225.86140625 -281.35766602 225.95703125 C-302.20032552 228.59802895 -322.88059021 228.16693541 -341.09765625 216.98828125 C-347.15929981 210.75825871 -350.42169318 203.77946228 -350.59765625 195.11328125 C-350.25902172 172.18772346 -334.91142152 151.18643875 -320.34765625 134.67578125 C-319.54328125 133.76183594 -318.73890625 132.84789062 -317.91015625 131.90625 C-306.20527746 118.89502313 -293.98066598 105.43112107 -279.34765625 95.67578125 C-279.01765625 97.32578125 -278.68765625 98.97578125 -278.34765625 100.67578125 C-279.02828125 101.17078125 -279.70890625 101.66578125 -280.41015625 102.17578125 C-283.41264743 104.73109289 -285.80266287 107.43883861 -288.34765625 110.43359375 C-290.47026287 112.81323476 -292.72584818 114.97749761 -295.03515625 117.17578125 C-309.49776399 131.52832348 -325.11184718 152.38433909 -325.72265625 173.36328125 C-325.64414038 180.17988596 -324.61486967 185.26200348 -320.34765625 190.67578125 C-312.68787987 197.77766053 -302.53101444 200.16350866 -292.34765625 200.67578125 C-291.31640625 200.72863281 -290.28515625 200.78148437 -289.22265625 200.8359375 C-256.0876077 201.67158017 -222.9033482 190.47581112 -192.78515625 177.67578125 C-191.66850586 177.20188965 -190.55185547 176.72799805 -189.40136719 176.23974609 C-183.25617049 173.56630431 -177.32170731 170.66028792 -171.42602539 167.48046875 C-170.74103218 167.11300537 -170.05603897 166.74554199 -169.35028839 166.36694336 C-167.68183008 165.47159093 -166.01461168 164.57392862 -164.34765625 163.67578125 C-164.34903894 162.72554549 -164.34903894 162.72554549 -164.35044956 161.75611305 C-164.37277459 146.16369778 -164.38919679 130.57128826 -164.39946842 114.97886086 C-164.40457086 107.4377242 -164.4115209 99.89659847 -164.4230957 92.35546875 C-164.52098731 27.34318485 -164.52098731 27.34318485 -163.34765625 0.67578125 C-159.64755583 2.12357402 -156.23342591 3.75695726 -152.76171875 5.6953125 C-151.67608643 6.29980225 -150.5904541 6.90429199 -149.47192383 7.52709961 C-148.30544239 8.1807217 -147.13902113 8.83445119 -145.97265625 9.48828125 C-144.77444071 10.15717597 -143.57611588 10.82587495 -142.37768555 11.49438477 C-131.00860591 17.84238921 -119.67150162 24.24749067 -108.34765625 30.67578125 C-108.34765625 27.70578125 -108.34765625 24.73578125 -108.34765625 21.67578125 C-101.08765625 21.67578125 -93.82765625 21.67578125 -86.34765625 21.67578125 C-86.01765625 29.26578125 -85.68765625 36.85578125 -85.34765625 44.67578125 C-83.36765625 45.33578125 -81.38765625 45.99578125 -79.34765625 46.67578125 C-77.3972168 47.62133789 -77.3972168 47.62133789 -75.734375 48.5859375 C-75.12658203 48.93591797 -74.51878906 49.28589844 -73.89257812 49.64648438 C-73.27962891 50.00677734 -72.66667969 50.36707031 -72.03515625 50.73828125 C-71.40287109 51.10244141 -70.77058594 51.46660156 -70.11914062 51.84179688 C-65.50769292 54.51574458 -65.50769292 54.51574458 -64.34765625 55.67578125 C-63.07817649 63.83418615 -63.23359808 72.00551092 -63.28515625 80.23828125 C-63.29018259 81.64257652 -63.29474349 83.04687355 -63.29882812 84.45117188 C-63.31054032 87.85942028 -63.32694253 91.26757765 -63.34765625 94.67578125 C-62.0851704 93.57770424 -60.82363932 92.47852948 -59.5625 91.37890625 C-58.85988037 90.76692383 -58.15726074 90.15494141 -57.43334961 89.52441406 C-50.64632926 83.50880853 -44.96834642 76.78207472 -39.34765625 69.67578125 C-38.60257812 68.75925781 -37.8575 67.84273438 -37.08984375 66.8984375 C-25.93145064 52.72688946 -16.32222368 36.25388687 -18.34765625 17.67578125 C-19.82151832 11.46516748 -22.72479955 7.50669884 -28 3.95703125 C-51.86467672 -9.06728483 -83.23410918 -2.00445993 -107.87475586 5.22485352 C-110.65486817 6.04979142 -113.42613071 6.89905062 -116.19360352 7.76538086 C-117.1617675 8.06347153 -117.1617675 8.06347153 -118.14949036 8.36758423 C-119.91189011 8.91205797 -121.67044367 9.4689369 -123.42871094 10.02661133 C-126.26990715 10.65848994 -127.66730171 10.69172208 -130.34765625 9.67578125 C-126.65947399 5.98759899 -121.09736357 5.03534184 -116.22265625 3.42578125 C-115.01158203 3.02536621 -113.80050781 2.62495117 -112.55273438 2.21240234 C-80.90405582 -8.06887808 -29.06371984 -23.77940714 0 0 Z M-137.34765625 79.67578125 C-137.34765625 85.94578125 -137.34765625 92.21578125 -137.34765625 98.67578125 C-130.74765625 98.67578125 -124.14765625 98.67578125 -117.34765625 98.67578125 C-117.34765625 92.40578125 -117.34765625 86.13578125 -117.34765625 79.67578125 C-123.94765625 79.67578125 -130.54765625 79.67578125 -137.34765625 79.67578125 Z M-111.34765625 79.67578125 C-111.34765625 85.94578125 -111.34765625 92.21578125 -111.34765625 98.67578125 C-104.74765625 98.67578125 -98.14765625 98.67578125 -91.34765625 98.67578125 C-91.34765625 92.40578125 -91.34765625 86.13578125 -91.34765625 79.67578125 C-97.94765625 79.67578125 -104.54765625 79.67578125 -111.34765625 79.67578125 Z M-137.34765625 105.67578125 C-137.34765625 112.27578125 -137.34765625 118.87578125 -137.34765625 125.67578125 C-130.74765625 125.67578125 -124.14765625 125.67578125 -117.34765625 125.67578125 C-117.34765625 119.07578125 -117.34765625 112.47578125 -117.34765625 105.67578125 C-123.94765625 105.67578125 -130.54765625 105.67578125 -137.34765625 105.67578125 Z M-111.34765625 105.67578125 C-111.34765625 112.27578125 -111.34765625 118.87578125 -111.34765625 125.67578125 C-101.3038583 126.45408247 -101.3038583 126.45408247 -92.70703125 121.94140625 C-89.74915902 117.0116192 -90.9319324 111.18412222 -91.34765625 105.67578125 C-97.94765625 105.67578125 -104.54765625 105.67578125 -111.34765625 105.67578125 Z " fill="#5D6165" transform="translate(418.34765625,138.32421875)"/>
<path d="M0 0 C3.73350124 0.93337531 6.16620647 2.05909162 9.48828125 3.921875 C10.57713623 4.5295874 11.66599121 5.1372998 12.7878418 5.76342773 C13.96280026 6.42549003 15.13768476 7.0876836 16.3125 7.75 C17.51517557 8.42362512 18.71805867 9.09687983 19.92114258 9.76977539 C23.61794549 11.83970068 27.30935524 13.91912031 31 16 C32.17283625 16.66067171 33.34568749 17.32131682 34.51855469 17.98193359 C41.01796331 21.64477569 47.51203392 25.31692858 54 29 C54 26.03 54 23.06 54 20 C61.26 20 68.52 20 76 20 C76.495 31.385 76.495 31.385 77 43 C78.98 43.66 80.96 44.32 83 45 C85.375 46.625 85.375 46.625 87 48 C86.67 49.32 86.34 50.64 86 52 C86.99 51.67 87.98 51.34 89 51 C91.625 51.75 91.625 51.75 94 53 C94.33 53.99 94.66 54.98 95 56 C95.66 55.67 96.32 55.34 97 55 C97.22350079 60.83470774 97.38625608 66.66689499 97.49438477 72.50488281 C97.53947923 74.48774643 97.60077651 76.4703135 97.67895508 78.45214844 C98.31199672 94.91950631 98.31199672 94.91950631 95.02685547 100.12890625 C89.66714892 105 89.66714892 105 86 105 C86 105.66 86 106.32 86 107 C84.20703125 108.62109375 84.20703125 108.62109375 81.8125 110.4375 C81.03519531 111.03433594 80.25789063 111.63117188 79.45703125 112.24609375 C77.05777372 113.9587593 74.5277373 115.48335762 72 117 C72 112.38 72 107.76 72 103 C64.74 103 57.48 103 50 103 C50.495 113.395 50.495 113.395 51 124 C53.97 124.99 53.97 124.99 57 126 C56.4375 128.375 56.4375 128.375 55 131 C52.6859378 131.73075648 50.35171131 132.40138258 48 133 C47.67 133.99 47.34 134.98 47 136 C45.32537313 137.01791045 43.64352587 138.02755 41.9140625 138.94921875 C40.08349767 139.95416148 38.39941276 141.05672091 36.6875 142.25 C34 144 34 144 32 144 C32 144.66 32 145.32 32 146 C31.071875 146.350625 30.14375 146.70125 29.1875 147.0625 C25.82032691 148.49591505 22.87172283 150.30848736 19.8125 152.3125 C14.09904361 156.03969939 8.14726649 159.05957397 2 162 C1.34 162.33 0.68 162.66 0 163 C0 109.21 0 55.42 0 0 Z M25 78 C25 84.27 25 90.54 25 97 C31.6 97 38.2 97 45 97 C45 90.73 45 84.46 45 78 C38.4 78 31.8 78 25 78 Z M51 78 C51 84.27 51 90.54 51 97 C57.6 97 64.2 97 71 97 C71 90.73 71 84.46 71 78 C64.4 78 57.8 78 51 78 Z M25 104 C25 110.6 25 117.2 25 124 C31.6 124 38.2 124 45 124 C45 117.4 45 110.8 45 104 C38.4 104 31.8 104 25 104 Z " fill="#1E4587" transform="translate(256,140)"/>
<path d="M0 0 C0.10804529 3.47770784 -0.07777773 6.63414922 -1 10 C-3.7377184 12.29074397 -5.83325375 13.47849529 -9 15 C-10.62249048 15.90614563 -12.24430608 16.81359736 -13.85839844 17.73461914 C-15.88745215 18.8908236 -17.92566477 20.02972209 -19.96484375 21.16796875 C-25.50639752 24.27382424 -31.01352982 27.43928031 -36.52416992 30.59954834 C-48.00078908 37.18039061 -59.52556429 43.6654612 -71.1184082 50.03955078 C-75.69953412 52.56675305 -80.2337091 55.10365249 -84.640625 57.92578125 C-88 60 -88 60 -90 60 C-89.67 79.8 -89.34 99.6 -89 120 C-77.23073148 108.25191499 -77.23073148 108.25191499 -66 96 C-64.74526564 94.69658747 -63.47553794 93.40695849 -62.17578125 92.1484375 C-61.53962891 91.52453125 -60.90347656 90.900625 -60.24804688 90.2578125 C-58.94775504 88.99294738 -57.645642 87.72995202 -56.34179688 86.46875 C-49.73124578 80.29682034 -49.73124578 80.29682034 -46.75 72.125 C-46.8325 71.42375 -46.915 70.7225 -47 70 C-54.30033372 66.09517034 -60.7393834 65.76083197 -68.91796875 65.28125 C-72 65 -72 65 -74 64 C-74 63.34 -74 62.68 -74 62 C-58.13478076 57.11839408 -45.43864717 58.05430771 -30.83203125 65.3671875 C-25.35877961 68.52280017 -22.6352303 71.07330022 -20.1875 76.9375 C-17.81619927 81.98726478 -15.83507041 84.57804234 -10.83203125 87.03515625 C-8.82398168 88.09270048 -7.52448051 89.33392688 -6 91 C-7.53416298 94.98882376 -10.4247074 98.64783382 -14 101 C-17.83842641 100.57915174 -19.55127925 98.9226667 -22 96 C-23 94 -24 92 -25 90 C-28.86450831 87.42366112 -30.40056256 87.33233973 -35 88 C-40.23169795 91.14078326 -44.40803509 95.07767772 -48 100 C-50.125 102.3125 -50.125 102.3125 -52 104 C-52.66 104 -53.32 104 -54 104 C-54.27270218 104.59834656 -54.54540436 105.19669312 -54.82637024 105.81317139 C-55.9700961 107.94427996 -57.06596894 109.30322739 -58.77807617 110.98925781 C-59.33593307 111.54373596 -59.89378998 112.09821411 -60.46855164 112.66949463 C-61.07060928 113.25809265 -61.67266693 113.84669067 -62.29296875 114.453125 C-62.91722244 115.07217712 -63.54147614 115.69122925 -64.18464661 116.32904053 C-66.1808997 118.30751147 -68.183688 120.27918743 -70.1875 122.25 C-72.8093708 124.83514098 -75.42805941 127.42344242 -78.04296875 130.015625 C-78.66757996 130.63473755 -79.29219116 131.2538501 -79.93572998 131.89172363 C-84.15912652 136.10162961 -88.14837031 140.44694127 -92 145 C-93.27329972 146.35088429 -94.55930662 147.69036972 -95.875 149 C-96.44992188 149.5775 -97.02484375 150.155 -97.6171875 150.75 C-99 152 -99 152 -100 152 C-100 119.66 -100 87.32 -100 54 C-92.41 49.71 -84.82 45.42 -77 41 C-65.85890601 34.65216738 -54.72616163 28.29368933 -43.65332031 21.82763672 C-39.69915025 19.52714239 -35.71798279 17.29204762 -31.6953125 15.11328125 C-27.76040169 12.97967298 -23.86986343 10.78459651 -20 8.53515625 C-18.51693359 7.67760742 -18.51693359 7.67760742 -17.00390625 6.80273438 C-14.96603254 5.62214564 -12.93229293 4.43439741 -10.90234375 3.24023438 C-9.92394531 2.67755859 -8.94554687 2.11488281 -7.9375 1.53515625 C-7.05964844 1.023479 -6.18179688 0.51180176 -5.27734375 -0.01538086 C-3 -1 -3 -1 0 0 Z " fill="#5D5F62" transform="translate(247,140)"/>
<path d="M0 0 C0.99 0.33 1.98 0.66 3 1 C3.2165625 1.9590625 3.2165625 1.9590625 3.4375 2.9375 C3.623125 3.618125 3.80875 4.29875 4 5 C4.86625 5.433125 4.86625 5.433125 5.75 5.875 C9.08201026 7.54100513 10.71412829 10.07916393 13 13 C11.62845496 15.95409701 10.01136276 18.44008376 8 21 C8.928125 20.34 9.85625 19.68 10.8125 19 C14 17 14 17 17 17 C19.05078125 19.16015625 19.05078125 19.16015625 21.3125 22.0625 C22.49585938 23.55910156 22.49585938 23.55910156 23.703125 25.0859375 C24.84007812 26.52839844 24.84007812 26.52839844 26 28 C27.9768873 30.35458527 29.98640164 32.67661728 32 35 C30.40094129 39.18138954 27.31182555 41.76820234 24.0625 44.6875 C23.48636963 45.21061768 22.91023926 45.73373535 22.31665039 46.27270508 C6.80259808 60.25687281 6.80259808 60.25687281 2 61 C2 61.99 2 62.98 2 64 C-0.14621433 66.20753474 -1.14179846 67.05932608 -4 68 C-7.26577498 67.95662981 -10.4375635 67.60451525 -13.68359375 67.25 C-21.89062736 66.6313308 -28.59296357 68.92222424 -35 74 C-38.09535076 76.77214144 -41.09668632 79.52572715 -43.27734375 83.0847168 C-45 85 -45 85 -47.36010742 85.45410156 C-48.26607666 85.4331543 -49.1720459 85.41220703 -50.10546875 85.390625 C-51.57983398 85.37128906 -51.57983398 85.37128906 -53.08398438 85.3515625 C-54.10814453 85.31804687 -55.13230469 85.28453125 -56.1875 85.25 C-57.22326172 85.23195313 -58.25902344 85.21390625 -59.32617188 85.1953125 C-61.88504284 85.14814437 -64.44205842 85.08234057 -67 85 C-67.65525054 81.81328463 -67.81059149 79.16959621 -67 76 C-64.07518418 72.96437821 -60.57641512 71.02413372 -56.9375 68.9375 C-47.40403615 63.27476583 -39.3972544 57.99815881 -36.46484375 46.7890625 C-35.92946565 43.57679393 -35.80866842 40.44068861 -35.6875 37.1875 C-35.38863257 31.55550938 -35.38863257 31.55550938 -33.64453125 29.0625 C-29.98171165 26 -29.98171165 26 -28 26 C-28 25.34 -28 24.68 -28 24 C-26.46804728 22.62787699 -24.87078919 21.3284554 -23.25 20.0625 C-17.84999133 15.75086517 -12.77550438 11.19598994 -7.7265625 6.48046875 C-2.50430808 1.72956394 -2.50430808 1.72956394 0 0 Z M-22 33 C-21.67 33.99 -21.34 34.98 -21 36 C-21 35.01 -21 34.02 -21 33 C-21.33 33 -21.66 33 -22 33 Z M-15 41 C-14.67 41.99 -14.34 42.98 -14 44 C-14 43.01 -14 42.02 -14 41 C-14.33 41 -14.66 41 -15 41 Z M-1 57 C-0.67 57.99 -0.34 58.98 0 60 C0 59.01 0 58.02 0 57 C-0.33 57 -0.66 57 -1 57 Z " fill="#5D6164" transform="translate(214,241)"/>
<path d="M0 0 C0.94663904 11.22443432 1.1110524 22.4305202 1.125 33.6875 C1.12749756 34.39712891 1.12999512 35.10675781 1.13256836 35.83789062 C1.1385067 37.89588184 1.13694657 39.95372555 1.1328125 42.01171875 C1.13168457 43.21272217 1.13055664 44.41372559 1.12939453 45.65112305 C1 49 1 49 0 55 C-27.39 55 -54.78 55 -83 55 C-78.50793651 50.50793651 -78.50793651 50.50793651 -75.41015625 48.87890625 C-74.37387085 48.3223938 -74.37387085 48.3223938 -73.31665039 47.75463867 C-72.57278076 47.36123291 -71.82891113 46.96782715 -71.0625 46.5625 C-49.31919464 34.75046995 -28.6156432 21.07498505 -9 6 C-7.43950057 4.80987227 -5.87722679 3.6220643 -4.3125 2.4375 C-3.68988281 1.96183594 -3.06726563 1.48617188 -2.42578125 0.99609375 C-1 0 -1 0 0 0 Z " fill="#244987" transform="translate(354,271)"/>
<path d="M0 0 C0.10804529 3.47770784 -0.07777773 6.63414922 -1 10 C-3.7377184 12.29074397 -5.83325375 13.47849529 -9 15 C-10.62249048 15.90614563 -12.24430608 16.81359736 -13.85839844 17.73461914 C-15.88745215 18.8908236 -17.92566477 20.02972209 -19.96484375 21.16796875 C-25.50639752 24.27382424 -31.01352982 27.43928031 -36.52416992 30.59954834 C-48.00078908 37.18039061 -59.52556429 43.6654612 -71.1184082 50.03955078 C-75.69953412 52.56675305 -80.2337091 55.10365249 -84.640625 57.92578125 C-88 60 -88 60 -90 60 C-89.67 80.46 -89.34 100.92 -89 122 C-89.66 122 -90.32 122 -91 122 C-91.00808685 121.21517242 -91.01617371 120.43034485 -91.02450562 119.62173462 C-91.10236372 112.23470432 -91.18962726 104.84787407 -91.28752708 97.46108437 C-91.33752784 93.66322119 -91.38385725 89.86538634 -91.421875 86.06738281 C-91.45868049 82.40385046 -91.50502693 78.740553 -91.55806351 75.07722092 C-91.57663279 73.67779017 -91.59173136 72.27830902 -91.60334396 70.87880325 C-91.62016243 68.9225205 -91.65033353 66.96636619 -91.68115234 65.01025391 C-91.69447601 63.8955069 -91.70779968 62.78075989 -91.7215271 61.63223267 C-91.73765198 58.84315432 -91.73765198 58.84315432 -94 57 C-94 56.01 -94 55.02 -94 54 C-95.65 54 -97.3 54 -99 54 C-96.11017222 51.73723008 -93.15754744 49.8809322 -89.94921875 48.1015625 C-88.45273804 47.26818359 -88.45273804 47.26818359 -86.92602539 46.41796875 C-85.85731201 45.82628906 -84.78859863 45.23460937 -83.6875 44.625 C-81.42947981 43.36756038 -79.17167223 42.1097389 -76.9140625 40.8515625 C-75.19171387 39.8929834 -75.19171387 39.8929834 -73.43457031 38.91503906 C-68.13454542 35.95986453 -62.84687949 32.98303988 -57.5625 30 C-56.19001099 29.227771 -56.19001099 29.227771 -54.78979492 28.43994141 C-50.49875696 26.01705421 -46.24103789 23.55526244 -42.02734375 21 C-37.7029999 18.38706625 -33.29735047 15.96101526 -28.8515625 13.56201172 C-25.873622 11.93077342 -22.93514375 10.24210919 -20 8.53515625 C-18.51693359 7.67760742 -18.51693359 7.67760742 -17.00390625 6.80273438 C-14.96603254 5.62214564 -12.93229293 4.43439741 -10.90234375 3.24023438 C-9.92394531 2.67755859 -8.94554687 2.11488281 -7.9375 1.53515625 C-7.05964844 1.023479 -6.18179688 0.51180176 -5.27734375 -0.01538086 C-3 -1 -3 -1 0 0 Z " fill="#66686A" transform="translate(247,140)"/>
<path d="M0 0 C2.68380194 2.52513122 3.71175476 4.72747014 5.125 8.11328125 C7.49630073 13.16304603 9.47742959 15.75382359 14.48046875 18.2109375 C16.48851832 19.26848173 17.78801949 20.50970813 19.3125 22.17578125 C17.77833702 26.16460501 14.8877926 29.82361507 11.3125 32.17578125 C7.47407359 31.75493299 5.76122075 30.09844795 3.3125 27.17578125 C2.3125 25.17578125 1.3125 23.17578125 0.3125 21.17578125 C-3.55200831 18.59944237 -5.08806256 18.50812098 -9.6875 19.17578125 C-14.91919795 22.31656451 -19.09553509 26.25345897 -22.6875 31.17578125 C-24.00244512 32.52725263 -25.33014858 33.86690667 -26.6875 35.17578125 C-28.1725 34.68078125 -28.1725 34.68078125 -29.6875 34.17578125 C-29.18146008 32.00703873 -28.68766187 30.17610498 -27.6875 28.17578125 C-27.0275 28.17578125 -26.3675 28.17578125 -25.6875 28.17578125 C-25.0275 24.21578125 -24.3675 20.25578125 -23.6875 16.17578125 C-27.62184196 17.15936674 -28.35899983 17.48397425 -30.9375 20.23828125 C-31.45828125 20.78613281 -31.9790625 21.33398438 -32.515625 21.8984375 C-33.09570312 22.53072266 -33.09570312 22.53072266 -33.6875 23.17578125 C-34.3475 22.84578125 -35.0075 22.51578125 -35.6875 22.17578125 C-35.01203125 21.52351563 -34.3365625 20.87125 -33.640625 20.19921875 C-25.40626579 12.97752341 -25.40626579 12.97752341 -21.4375 3.30078125 C-21.56125 2.24890625 -21.56125 2.24890625 -21.6875 1.17578125 C-28.98783372 -2.72904841 -35.4268834 -3.06338678 -43.60546875 -3.54296875 C-46.6875 -3.82421875 -46.6875 -3.82421875 -48.6875 -4.82421875 C-48.6875 -5.48421875 -48.6875 -6.14421875 -48.6875 -6.82421875 C-30.72966303 -12.34970705 -15.53767356 -10.5466476 0 0 Z " fill="#5F6264" transform="translate(221.6875,208.82421875)"/>
<path d="M0 0 C0.66 0.33 1.32 0.66 2 1 C1.58071383 5.89167203 -0.44286435 7.76624032 -4 11 C-5.16595703 12.16595703 -5.16595703 12.16595703 -6.35546875 13.35546875 C-8.03792367 15.03792367 -9.74169998 16.69951799 -11.47265625 18.33203125 C-25.08463222 31.36914247 -42.50228329 51.64269551 -45 71 C-45.33 69.68 -45.66 68.36 -46 67 C-47.65 67 -49.3 67 -51 67 C-51 66.34 -51 65.68 -51 65 C-50.34 65 -49.68 65 -49 65 C-49 63.68 -49 62.36 -49 61 C-49.66 61 -50.32 61 -51 61 C-51 60.34 -51 59.68 -51 59 C-51.99 59 -52.98 59 -54 59 C-52.5135805 54.52404017 -50.04213088 51.13610976 -47.125 47.5 C-46.63668701 46.88688965 -46.14837402 46.2737793 -45.64526367 45.64208984 C-40.40016159 39.13732739 -34.80618522 33.00514074 -29 27 C-28.36868164 26.34676758 -27.73736328 25.69353516 -27.08691406 25.02050781 C-19.73042352 17.45026936 -12.36244158 10.11441803 -4.0390625 3.6015625 C-1.93484489 2.01438706 -1.93484489 2.01438706 0 0 Z " fill="#626467" transform="translate(138,234)"/>
<path d="M0 0 C0 1 0 2 0 3 C3.01031744 3.93423645 3.86650268 4.04449911 7 3 C7 2.34 7 1.68 7 1 C8.75 0.3125 8.75 0.3125 11 0 C13.140625 1.48046875 13.140625 1.48046875 15 3 C3.4868812 9.61302088 -8.05148036 16.18071306 -19.625 22.6875 C-20.709021 23.29932129 -21.79304199 23.91114258 -22.90991211 24.54150391 C-23.92190674 25.1091748 -24.93390137 25.6768457 -25.9765625 26.26171875 C-26.87455566 26.76662842 -27.77254883 27.27153809 -28.69775391 27.79174805 C-31 29 -31 29 -34 30 C-33.67 50.46 -33.34 70.92 -33 92 C-33.66 92 -34.32 92 -35 92 C-35.00808685 91.21517242 -35.01617371 90.43034485 -35.02450562 89.62173462 C-35.10236372 82.23470432 -35.18962726 74.84787407 -35.28752708 67.46108437 C-35.33752784 63.66322119 -35.38385725 59.86538634 -35.421875 56.06738281 C-35.45868049 52.40385046 -35.50502693 48.740553 -35.55806351 45.07722092 C-35.57663279 43.67779017 -35.59173136 42.27830902 -35.60334396 40.87880325 C-35.62016243 38.9225205 -35.65033353 36.96636619 -35.68115234 35.01025391 C-35.69447601 33.8955069 -35.70779968 32.78075989 -35.7215271 31.63223267 C-35.73765198 28.84315432 -35.73765198 28.84315432 -38 27 C-38 26.01 -38 25.02 -38 24 C-39.65 24 -41.3 24 -43 24 C-39.99780689 21.63886342 -36.90196547 19.74047138 -33.5625 17.890625 C-32.50160156 17.30023438 -31.44070312 16.70984375 -30.34765625 16.1015625 C-29.24292969 15.49054688 -28.13820312 14.87953125 -27 14.25 C-24.83272044 13.0479794 -22.66605208 11.84485612 -20.5 10.640625 C-19.43136719 10.04701172 -18.36273438 9.45339844 -17.26171875 8.84179688 C-12.92014878 6.3902397 -8.63792006 3.84256592 -4.36328125 1.27636719 C-2 0 -2 0 0 0 Z " fill="#6D7072" transform="translate(191,170)"/>
<path d="M0 0 C3.31248187 -0.02888146 6.62493167 -0.04675799 9.9375 -0.0625 C10.88302734 -0.07087891 11.82855469 -0.07925781 12.80273438 -0.08789062 C14.15141602 -0.09272461 14.15141602 -0.09272461 15.52734375 -0.09765625 C16.77632446 -0.10551147 16.77632446 -0.10551147 18.05053711 -0.11352539 C20 0 20 0 21 1 C21.08713831 2.70772358 21.10700007 4.41898649 21.09765625 6.12890625 C21.09443359 7.16337891 21.09121094 8.19785156 21.08789062 9.26367188 C21.07532227 10.8965918 21.07532227 10.8965918 21.0625 12.5625 C21.05798828 13.65498047 21.05347656 14.74746094 21.04882812 15.87304688 C21.03699826 18.58208495 21.02051543 21.29101599 21 24 C20.34 24 19.68 24 19 24 C19.495 25.98 19.495 25.98 20 28 C12.74 28 5.48 28 -2 28 C-2 34.93 -2 41.86 -2 49 C-2.33 49 -2.66 49 -3 49 C-3.33 43.72 -3.66 38.44 -4 33 C-4.33 38.28 -4.66 43.56 -5 49 C-5.33 49 -5.66 49 -6 49 C-6 42.07 -6 35.14 -6 28 C-13.26 28 -20.52 28 -28 28 C-28 34.6 -28 41.2 -28 48 C-28.33 48 -28.66 48 -29 48 C-29.02908357 44.58335127 -29.04682691 41.1667345 -29.0625 37.75 C-29.07087891 36.78191406 -29.07925781 35.81382812 -29.08789062 34.81640625 C-29.09111328 33.88183594 -29.09433594 32.94726562 -29.09765625 31.984375 C-29.10289307 31.12553711 -29.10812988 30.26669922 -29.11352539 29.38183594 C-29 27 -29 27 -28 23 C-20.74 23 -13.48 23 -6 23 C-6 16.4 -6 9.8 -6 3 C-5.67 3 -5.34 3 -5 3 C-5 9.27 -5 15.54 -5 22 C-4.34 22 -3.68 22 -3 22 C-3 15.73 -3 9.46 -3 3 C-2.67 3 -2.34 3 -2 3 C-2 9.6 -2 16.2 -2 23 C5.26 23 12.52 23 20 23 C19.505 12.605 19.505 12.605 19 2 C12.73 1.67 6.46 1.34 0 1 C0 0.67 0 0.34 0 0 Z " fill="#1C3C75" transform="translate(308,215)"/>
<path d="M0 0 C0.66 0.33 1.32 0.66 2 1 C1.58071383 5.89167203 -0.44286435 7.76624032 -4 11 C-5.66805382 12.66527836 -7.33456018 14.33210739 -9 16 C-9.83917969 16.804375 -10.67835937 17.60875 -11.54296875 18.4375 C-18.44757787 25.12793366 -24.32021349 32.25035637 -30 40 C-30.66 38.68 -31.32 37.36 -32 36 C-34.475 36.495 -34.475 36.495 -37 37 C-35.44927108 33.30497444 -33.19398135 30.93590563 -30.37890625 28.11328125 C-29.91951157 27.65197311 -29.46011688 27.19066498 -28.98680115 26.71537781 C-28.01164385 25.738862 -27.03396617 24.76485744 -26.05395508 23.79321289 C-24.5916286 22.3414188 -23.14006331 20.87950471 -21.68945312 19.41601562 C-16.1134903 13.83294136 -10.37782095 8.68010966 -4.19506836 3.76635742 C-1.96478362 2.03651239 -1.96478362 2.03651239 0 0 Z " fill="#767678" transform="translate(138,234)"/>
<path d="M0 0 C0.10809958 3.47945534 -0.05209717 6.63831184 -1 10 C-3.29323197 12.40100789 -6.03920159 13.56300012 -9 15 C-10.77641993 16.11615766 -12.54722886 17.24129214 -14.3125 18.375 C-16.80078125 19.9609375 -16.80078125 19.9609375 -19 21 C-19.99 20.67 -20.98 20.34 -22 20 C-22 19.01 -22 18.02 -22 17 C-24.21776622 15.69485264 -24.21776622 15.69485264 -27 15 C-29.67676547 16.37249963 -29.67676547 16.37249963 -32 18 C-32.66 17.67 -33.32 17.34 -34 17 C-29.11168688 14.11198934 -24.21738264 11.23454658 -19.31835938 8.36474609 C-17.15887433 7.09352438 -15.00826534 5.8085522 -12.859375 4.51953125 C-11.61479052 3.78350372 -10.37000983 3.04780782 -9.125 2.3125 C-8.01382813 1.64863281 -6.90265625 0.98476562 -5.7578125 0.30078125 C-3 -1 -3 -1 0 0 Z " fill="#686B6C" transform="translate(247,140)"/>
<path d="M0 0 C-0.63808594 0.13277344 -1.27617187 0.26554688 -1.93359375 0.40234375 C-2.75988281 0.57894531 -3.58617187 0.75554687 -4.4375 0.9375 C-5.26121094 1.11152344 -6.08492188 1.28554687 -6.93359375 1.46484375 C-8.97661204 1.80752994 -8.97661204 1.80752994 -10 3 C-2.08 3.33 5.84 3.66 14 4 C14 4.33 14 4.66 14 5 C13.39865234 5.0093457 12.79730469 5.01869141 12.17773438 5.02832031 C-11.17784249 5.47848449 -32.6110486 9.12976204 -54.84594727 16.08984375 C-55.81411125 16.38788155 -55.81411125 16.38788155 -56.80183411 16.69194031 C-58.56425724 17.23629185 -60.3228005 17.7931598 -62.08105469 18.35083008 C-64.9222509 18.98270869 -66.31964546 19.01594083 -69 18 C-65.31165781 14.31165781 -59.74976418 13.36001692 -54.875 11.75 C-53.66900146 11.35031006 -52.46300293 10.95062012 -51.22045898 10.53881836 C-9.32524431 -3.0955568 -9.32524431 -3.0955568 0 0 Z " fill="#7A7C7B" transform="translate(357,130)"/>
<path d="M0 0 C2 2 2 2 2.24609566 4.69802284 C2.24425207 5.85395124 2.24240849 7.00987965 2.24050903 8.20083618 C2.24221788 8.84366275 2.24392673 9.48648932 2.24568737 10.14879549 C2.24899328 12.3123622 2.23796078 14.4756218 2.22705078 16.63916016 C2.2264869 18.18623345 2.22680277 19.73330727 2.22793579 21.28038025 C2.22851122 25.48885185 2.21672621 29.69721018 2.20278788 33.90565538 C2.19031215 38.30057233 2.18911252 42.69549167 2.18673706 47.09042358 C2.18051298 55.41667602 2.16408965 63.74287614 2.14403808 72.06910551 C2.1217079 81.54659421 2.11069291 91.02408538 2.10064721 100.50159383 C2.0797242 120.00109225 2.04453024 139.50054192 2 159 C2.90492188 158.45859375 2.90492188 158.45859375 3.828125 157.90625 C4.62734375 157.4421875 5.4265625 156.978125 6.25 156.5 C7.03890625 156.0359375 7.8278125 155.571875 8.640625 155.09375 C11 154 11 154 15 154 C15 153.34 15 152.68 15 152 C16.76403729 150.74163402 18.58779499 149.5661735 20.4375 148.4375 C23.90436436 146.46466077 23.90436436 146.46466077 27 144 C28.66617115 143.95936168 30.33388095 143.957279 32 144 C32 144.66 32 145.32 32 146 C31.071875 146.350625 30.14375 146.70125 29.1875 147.0625 C25.82032691 148.49591505 22.87172283 150.30848736 19.8125 152.3125 C14.09904361 156.03969939 8.14726649 159.05957397 2 162 C1.34 162.33 0.68 162.66 0 163 C0 109.21 0 55.42 0 0 Z " fill="#173971" transform="translate(256,140)"/>
<path d="M0 0 C-0.33 0.99 -0.66 1.98 -1 3 C-2.98 3 -4.96 3 -7 3 C-7 3.66 -7 4.32 -7 5 C-8.32 5 -9.64 5 -11 5 C-11.33 5.66 -11.66 6.32 -12 7 C-12.886875 6.525625 -13.77375 6.05125 -14.6875 5.5625 C-20.87111434 2.64570078 -27.17133201 2.6768643 -33.91796875 2.28125 C-37 2 -37 2 -39 1 C-39 0.34 -39 -0.32 -39 -1 C-25.67003665 -5.10152718 -12.91965073 -5.65234719 0 0 Z " fill="#707274" transform="translate(212,203)"/>
<path d="M0 0 C0 0.66 0 1.32 0 2 C1.9600281 3.63676257 1.9600281 3.63676257 4 5 C2.35 5 0.7 5 -1 5 C-0.67 5.99 -0.34 6.98 0 8 C-1.12073862 8.83905565 -2.24674547 9.67107831 -3.375 10.5 C-4.00148437 10.9640625 -4.62796875 11.428125 -5.2734375 11.90625 C-7 13 -7 13 -9 13 C-8.67 33.46 -8.34 53.92 -8 75 C-8.66 75 -9.32 75 -10 75 C-10.00808685 74.21517242 -10.01617371 73.43034485 -10.02450562 72.62173462 C-10.10236372 65.23470432 -10.18962726 57.84787407 -10.28752708 50.46108437 C-10.33752784 46.66322119 -10.38385725 42.86538634 -10.421875 39.06738281 C-10.45868049 35.40385046 -10.50502693 31.740553 -10.55806351 28.07722092 C-10.57663279 26.67779017 -10.59173136 25.27830902 -10.60334396 23.87880325 C-10.62016243 21.9225205 -10.65033353 19.96636619 -10.68115234 18.01025391 C-10.69447601 16.8955069 -10.70779968 15.78075989 -10.7215271 14.63223267 C-10.73765198 11.84315432 -10.73765198 11.84315432 -13 10 C-13 9.01 -13 8.02 -13 7 C-14.65 7 -16.3 7 -18 7 C-15.27787126 4.90130664 -12.52438761 2.99530639 -9.5625 1.25 C-8.82128906 0.80140625 -8.08007812 0.3528125 -7.31640625 -0.109375 C-4.47621034 -1.20138962 -2.8799815 -0.83301052 0 0 Z " fill="#86888A" transform="translate(166,187)"/>
<path d="M0 0 C3.76127491 0.10165608 4.98989184 0.99079034 7.8125 3.5625 C8.534375 4.366875 9.25625 5.17125 10 6 C8.46583702 9.98882376 5.5752926 13.64783382 2 16 C-1.82497388 15.57983241 -3.60192545 13.95762528 -6 11 C-7.25 7.75 -7.25 7.75 -8 5 C-7.01 4.67 -6.02 4.34 -5 4 C-5 4.66 -5 5.32 -5 6 C-4.34 6 -3.68 6 -3 6 C-2.814375 5.071875 -2.814375 5.071875 -2.625 4.125 C-2 2 -2 2 0 0 Z " fill="#6A6D6F" transform="translate(231,225)"/>
<path d="M0 0 C6.93 0 13.86 0 21 0 C20.34 0.66 19.68 1.32 19 2 C19.66 2.33 20.32 2.66 21 3 C21 3.66 21 4.32 21 5 C14.07 5 7.14 5 0 5 C0 11.6 0 18.2 0 25 C-0.33 25 -0.66 25 -1 25 C-1.02908357 21.58335127 -1.04682691 18.1667345 -1.0625 14.75 C-1.07087891 13.78191406 -1.07925781 12.81382812 -1.08789062 11.81640625 C-1.09111328 10.88183594 -1.09433594 9.94726562 -1.09765625 8.984375 C-1.10289307 8.12553711 -1.10812988 7.26669922 -1.11352539 6.38183594 C-1 4 -1 4 0 0 Z " fill="#213F76" transform="translate(280,238)"/>
<path d="M0 0 C0.66 0.66 1.32 1.32 2 2 C2.99 2.66 3.98 3.32 5 4 C1.37 8.62 -2.26 13.24 -6 18 C-6.66 16.68 -7.32 15.36 -8 14 C-9.65 14.33 -11.3 14.66 -13 15 C-11.38989473 10.92623969 -8.46177729 8.23492931 -5.375 5.25 C-4.859375 4.74339844 -4.34375 4.23679687 -3.8125 3.71484375 C-2.54616661 2.47196098 -1.2736856 1.23534724 0 0 Z " fill="#77787A" transform="translate(114,256)"/>
<path d="M0 0 C7.26 0 14.52 0 22 0 C22.33 7.59 22.66 15.18 23 23 C23.66 23.33 24.32 23.66 25 24 C24.01 24.33 23.02 24.66 22 25 C21.0699111 22.2097333 20.81301231 20.23470458 20.68359375 17.33203125 C20.64169922 16.43935547 20.59980469 15.54667969 20.55664062 14.62695312 C20.51732422 13.69818359 20.47800781 12.76941406 20.4375 11.8125 C20.39431641 10.87212891 20.35113281 9.93175781 20.30664062 8.96289062 C20.20061457 6.64209812 20.09980806 4.32106823 20 2 C11.585 2.495 11.585 2.495 3 3 C3 5.31 3 7.62 3 10 C0.21571665 10.77341204 -1.47275102 11.17574966 -4.25 10.25 C-6 9 -6 9 -7 6 C-2.25 7.875 -2.25 7.875 0 9 C0 6.03 0 3.06 0 0 Z " fill="#445E89" transform="translate(310,160)"/>
<path d="M0 0 C-0.33 1.65 -0.66 3.3 -1 5 C-8.92 5 -16.84 5 -25 5 C-23 2 -23 2 -19.25 0.8125 C-12.89232247 -0.44654907 -6.44988592 -0.16514644 0 0 Z " fill="#57585B" transform="translate(371,129)"/>
<path d="M0 0 C-0.99 0.33 -1.98 0.66 -3 1 C-2.67 1.66 -2.34 2.32 -2 3 C-5.7680923 4.170577 -9.54000479 5.32779378 -13.31591797 6.47290039 C-15.22968874 7.05630817 -17.14026202 7.65017139 -19.05078125 8.24414062 C-20.85869141 8.79038086 -20.85869141 8.79038086 -22.703125 9.34765625 C-24.36843262 9.85824585 -24.36843262 9.85824585 -26.06738281 10.37915039 C-28.90617452 10.98013668 -30.32522627 11.0044629 -33 10 C-29.43881548 6.43881548 -24.24288678 5.51298409 -19.53320312 3.94897461 C-17.63526143 3.31592267 -15.74336649 2.66483629 -13.8515625 2.01367188 C-12.6553125 1.61341797 -11.4590625 1.21316406 -10.2265625 0.80078125 C-9.12908691 0.43122314 -8.03161133 0.06166504 -6.90087891 -0.3190918 C-4.05506898 -0.98707395 -2.68957302 -1.02275518 0 0 Z " fill="#A1A1A1" transform="translate(321,138)"/>
<path d="M0 0 C3.3 0 6.6 0 10 0 C9.67 1.32 9.34 2.64 9 4 C8.34 4 7.68 4 7 4 C6.690625 4.8353125 6.690625 4.8353125 6.375 5.6875 C3.13430608 11.13775796 -2.38684053 13.90634109 -7.8203125 16.796875 C-9.76925559 17.8726357 -11.55904245 19.02958471 -13.375 20.3125 C-16 22 -16 22 -19 22 C-19 21.34 -19 20.68 -19 20 C-16.734375 18.34375 -16.734375 18.34375 -13.75 16.5 C-12.77546875 15.8915625 -11.8009375 15.283125 -10.796875 14.65625 C-9.13919272 13.67460575 -7.45657446 12.73062555 -5.73046875 11.875 C-3.91460433 11.07708736 -3.91460433 11.07708736 -2.5625 9.5 C-1 8 -1 8 1.625 7.0625 C4.19124685 6.2501999 4.19124685 6.2501999 4.8125 3.875 C4.9053125 2.946875 4.9053125 2.946875 5 2 C2.525 1.505 2.525 1.505 0 1 C0 0.67 0 0.34 0 0 Z " fill="#495A70" transform="translate(307,264)"/>
<path d="M0 0 C0.66 0.33 1.32 0.66 2 1 C-8.29166667 13.27083333 -8.29166667 13.27083333 -14.25 14.875 C-17 15 -17 15 -19 14 C-15.53233124 10.17483962 -11.54420806 7.54245288 -7.25 4.75 C-6.20392578 4.06164062 -6.20392578 4.06164062 -5.13671875 3.359375 C-3.42725789 2.23534594 -1.71400488 1.11708776 0 0 Z " fill="#1C3F79" transform="translate(321,294)"/>
<path d="M0 0 C0.99 0 1.98 0 3 0 C2.34 1.32 1.68 2.64 1 4 C-0.98 4 -2.96 4 -5 4 C-5 4.66 -5 5.32 -5 6 C-8.11771927 7.60339848 -9.39011689 8.18974141 -12.8125 7.125 C-13.534375 6.75375 -14.25625 6.3825 -15 6 C-14.01 5.67 -13.02 5.34 -12 5 C-12 4.01 -12 3.02 -12 2 C-7.89931145 -1.47937211 -5.0853489 -1.03590441 0 0 Z " fill="#595B5D" transform="translate(203,167)"/>
<path d="M0 0 C1.2065625 0.0309375 1.2065625 0.0309375 2.4375 0.0625 C2.4375 0.7225 2.4375 1.3825 2.4375 2.0625 C1.509375 2.413125 0.58125 2.76375 -0.375 3.125 C-3.74217309 4.55841505 -6.69077717 6.37098736 -9.75 8.375 C-15.46345639 12.10219939 -21.41523351 15.12207397 -27.5625 18.0625 C-28.2225 18.3925 -28.8825 18.7225 -29.5625 19.0625 C-29.5625 18.0725 -29.5625 17.0825 -29.5625 16.0625 C-27.81845212 15.05215502 -26.06700439 14.05457578 -24.3125 13.0625 C-23.33796875 12.505625 -22.3634375 11.94875 -21.359375 11.375 C-18.5625 10.0625 -18.5625 10.0625 -14.5625 10.0625 C-14.5625 9.4025 -14.5625 8.7425 -14.5625 8.0625 C-12.79846271 6.80413402 -10.97470501 5.6286735 -9.125 4.5 C-1.87404293 0.04570836 -1.87404293 0.04570836 0 0 Z " fill="#264373" transform="translate(285.5625,283.9375)"/>
<path d="M0 0 C5.23435005 4.27293882 9.67106815 8.81580806 14 14 C13.01 14.66 12.02 15.32 11 16 C8.66666667 13.66666667 6.33333333 11.33333333 4 9 C3.525625 8.54625 3.05125 8.0925 2.5625 7.625 C0.86407265 5.85863555 -0.56399424 3.98305558 -2 2 C-1.34 1.34 -0.68 0.68 0 0 Z " fill="#6B6F71" transform="translate(184,267)"/>
<path d="M0 0 C0.99 0.33 1.98 0.66 3 1 C3.6875 3.0625 3.6875 3.0625 4 5 C3.01 5 2.02 5 1 5 C0.67 6.32 0.34 7.64 0 9 C-0.99 8.34 -1.98 7.68 -3 7 C-3.33 8.65 -3.66 10.3 -4 12 C-5.32 11.67 -6.64 11.34 -8 11 C-7.91601729 8.14458787 -7.39043615 6.43760967 -5.48046875 4.296875 C-2.00244352 1.16299122 -2.00244352 1.16299122 0 0 Z " fill="#565759" transform="translate(103,269)"/>
<path d="M0 0 C-0.99 1.485 -0.99 1.485 -2 3 C-2 3.99 -2 4.98 -2 6 C-2.33 6.66 -2.66 7.32 -3 8 C-3.66 7.67 -4.32 7.34 -5 7 C-5 7.66 -5 8.32 -5 9 C-9 9 -9 9 -11 8 C-11.33 7.34 -11.66 6.68 -12 6 C-11.01 5.34 -10.02 4.68 -9 4 C-9 3.01 -9 2.02 -9 1 C-5.64919071 -1.10976881 -3.77897651 -1.0497157 0 0 Z " fill="#565A5B" transform="translate(184,178)"/>
<path d="M0 0 C1.64703306 0.81006526 3.29259506 1.6231221 4.9375 2.4375 C5.85402344 2.88996094 6.77054687 3.34242188 7.71484375 3.80859375 C10 5 10 5 11 6 C12.10153363 13.3435575 12.1031366 20.58562466 12 28 C11.67 28 11.34 28 11 28 C10.9498877 27.42967041 10.89977539 26.85934082 10.84814453 26.27172852 C10.61680288 23.70100343 10.37109952 21.13185243 10.125 18.5625 C10.04636719 17.66466797 9.96773438 16.76683594 9.88671875 15.84179688 C9.80292969 14.98779297 9.71914063 14.13378906 9.6328125 13.25390625 C9.55949707 12.46314697 9.48618164 11.6723877 9.41064453 10.85766602 C9.27513184 10.24463623 9.13961914 9.63160645 9 9 C8.34 8.67 7.68 8.34 7 8 C6.67 7.01 6.34 6.02 6 5 C3.69 4.67 1.38 4.34 -1 4 C-0.67 2.68 -0.34 1.36 0 0 Z " fill="#8D9DB4" transform="translate(343,188)"/>
<path d="M0 0 C0.99 0 1.98 0 3 0 C4.36118461 2.24195113 5.06138028 3.47826762 4.75 6.125 C4 8 4 8 2 10 C-0.125 9.625 -0.125 9.625 -2 9 C-2.625 6.6875 -2.625 6.6875 -3 4 C-1 1 -1 1 0 0 Z " fill="#5C6163" transform="translate(233,229)"/>
<path d="M0 0 C0.66 0.33 1.32 0.66 2 1 C1.58534283 5.83766699 -0.4198615 7.85646376 -4 11 C-4.99 11.495 -4.99 11.495 -6 12 C-6.99 10.68 -7.98 9.36 -9 8 C-6.03 5.36 -3.06 2.72 0 0 Z " fill="#7C7C7E" transform="translate(138,234)"/>
<path d="M0 0 C-0.93972656 0.19916016 -0.93972656 0.19916016 -1.8984375 0.40234375 C-3.12433594 0.66724609 -3.12433594 0.66724609 -4.375 0.9375 C-5.18710937 1.11152344 -5.99921875 1.28554687 -6.8359375 1.46484375 C-9.029463 1.92330693 -9.029463 1.92330693 -11 3 C-12.67654729 2.72057545 -14.34608154 2.39171753 -16 2 C-16 1.67 -16 1.34 -16 1 C-14.0852312 0.63571223 -12.16807707 0.28394694 -10.25 -0.0625 C-9.18265625 -0.25972656 -8.1153125 -0.45695313 -7.015625 -0.66015625 C-4.25228095 -0.97156937 -2.59053383 -0.8991416 0 0 Z M-12 3 C0.87 3.495 0.87 3.495 14 4 C14 4.33 14 4.66 14 5 C4.43 5.33 -5.14 5.66 -15 6 C-14.01 5.67 -13.02 5.34 -12 5 C-12 4.34 -12 3.68 -12 3 Z " fill="#9F9FA1" transform="translate(357,130)"/>
<path d="M0 0 C0.66 0.33 1.32 0.66 2 1 C1.67 3.64 1.34 6.28 1 9 C0.236875 8.62875 -0.52625 8.2575 -1.3125 7.875 C-2.6428125 7.441875 -2.6428125 7.441875 -4 7 C-4.99 7.66 -5.98 8.32 -7 9 C-8.32 8.67 -9.64 8.34 -11 8 C-7.37 5.36 -3.74 2.72 0 0 Z M-3 9 C0 10 0 10 0 10 Z " fill="#35568C" transform="translate(334,285)"/>
<path d="M0 0 C3.94727588 -0.17942163 6.5980513 -0.09350689 10 2 C10.33 1.34 10.66 0.68 11 0 C13.4375 0.8125 13.4375 0.8125 16 2 C16.33 2.99 16.66 3.98 17 5 C10.80282648 6.75137513 7.50720839 5.17309311 1.94140625 2.12890625 C1.30074219 1.75636719 0.66007812 1.38382813 0 1 C0 0.67 0 0.34 0 0 Z " fill="#707274" transform="translate(381,137)"/>
<path d="M0 0 C0.66 0.33 1.32 0.66 2 1 C1.505 1.45375 1.01 1.9075 0.5 2.375 C-1.22609337 3.87635519 -1.22609337 3.87635519 -1 6 C0.45833358 7.62514468 0.45833358 7.62514468 2 9 C1.34 9.66 0.68 10.32 0 11 C-1.0725 10.62875 -2.145 10.2575 -3.25 9.875 C-6.81629347 8.68508268 -6.81629347 8.68508268 -9.4375 9.875 C-9.953125 10.24625 -10.46875 10.6175 -11 11 C-7.33333333 7.33333333 -3.66666667 3.66666667 0 0 Z " fill="#76777A" transform="translate(209,245)"/>
<path d="M0 0 C1.65 0.33 3.3 0.66 5 1 C4.4375 3.375 4.4375 3.375 3 6 C-0.625 7.3125 -0.625 7.3125 -4 8 C-4 6.35 -4 4.7 -4 3 C-2.68 2.34 -1.36 1.68 0 1 C0 0.67 0 0.34 0 0 Z " fill="#21417A" transform="translate(308,265)"/>
<path d="M0 0 C0.99 0.33 1.98 0.66 3 1 C3.144375 1.639375 3.28875 2.27875 3.4375 2.9375 C3.623125 3.618125 3.80875 4.29875 4 5 C5.32467746 5.6837045 6.65863633 6.34964186 8 7 C9.25 9.125 9.25 9.125 10 11 C9.01 11 8.02 11 7 11 C6.67 10.01 6.34 9.02 6 8 C4.02 8.33 2.04 8.66 0 9 C0.33 7.02 0.66 5.04 1 3 C0.01 2.67 -0.98 2.34 -2 2 C-1.34 1.34 -0.68 0.68 0 0 Z " fill="#9FA1A1" transform="translate(214,241)"/>
<path d="M0 0 C-0.99 0.495 -0.99 0.495 -2 1 C-0.02 1.66 1.96 2.32 4 3 C4 3.33 4 3.66 4 4 C1.87506859 4.02693575 -0.24995912 4.04636628 -2.375 4.0625 C-3.55835938 4.07410156 -4.74171875 4.08570313 -5.9609375 4.09765625 C-9 4 -9 4 -11 3 C-11 2.34 -11 1.68 -11 1 C-3.57142857 -1.42857143 -3.57142857 -1.42857143 0 0 Z " fill="#929394" transform="translate(184,201)"/>
<path d="M0 0 C0 0.66 0 1.32 0 2 C-0.61488281 2.33773438 -1.22976563 2.67546875 -1.86328125 3.0234375 C-2.67152344 3.46945312 -3.47976563 3.91546875 -4.3125 4.375 C-5.11300781 4.81585938 -5.91351563 5.25671875 -6.73828125 5.7109375 C-8.53527943 6.73513335 -10.27900708 7.85267138 -12 9 C-14.1875 8.625 -14.1875 8.625 -16 8 C-14.3990869 6.84962529 -12.79414775 5.70485184 -11.1875 4.5625 C-10.29417969 3.92441406 -9.40085937 3.28632813 -8.48046875 2.62890625 C-5.48400514 0.66114983 -3.59303127 0 0 0 Z " fill="#4A5B71" transform="translate(288,286)"/>
<path d="M0 0 C1.32 0.33 2.64 0.66 4 1 C2.55746343 4.36591866 0.66735273 6.51047079 -2 9 C-2.99 8.01 -3.98 7.02 -5 6 C-3.35 4.02 -1.7 2.04 0 0 Z " fill="#6E6E6F" transform="translate(128,243)"/>
<path d="M0 0 C1.32 0 2.64 0 4 0 C3.5206753 4.31392226 2.2542015 6.16569547 -1 9 C-1.99 8.67 -2.98 8.34 -4 8 C-3.49396008 5.83125748 -3.00016187 4.00032373 -2 2 C-1.34 2 -0.68 2 0 2 C0 1.34 0 0.68 0 0 Z " fill="#676869" transform="translate(196,235)"/>
<path d="M0 0 C3.3 0 6.6 0 10 0 C9.67 0.99 9.34 1.98 9 3 C6.11788698 3.96070434 4.30149956 4.10581883 1.3125 4.0625 C0.10013672 4.04896484 0.10013672 4.04896484 -1.13671875 4.03515625 C-2.05904297 4.01775391 -2.05904297 4.01775391 -3 4 C-2.67 3.34 -2.34 2.68 -2 2 C-1.34 2 -0.68 2 0 2 C0 1.34 0 0.68 0 0 Z " fill="#707172" transform="translate(336,132)"/>
<path d="M0 0 C-0.99 0.33 -1.98 0.66 -3 1 C-2.67 1.66 -2.34 2.32 -2 3 C-6.873261 4.5912689 -10.80790596 5.21192221 -16 5 C-11.53804271 0.94367519 -6.09738864 -2.43895546 0 0 Z " fill="#8D8D8D" transform="translate(321,138)"/>
<path d="M0 0 C0.66 0.33 1.32 0.66 2 1 C1 2 0 3 -1 4 C-1.5775 4.721875 -2.155 5.44375 -2.75 6.1875 C-5.85435381 8.68822946 -8.12793397 8.29785123 -12 8 C-8.20182235 4.77730382 -4.42608146 2.25479622 0 0 Z " fill="#506791" transform="translate(291,313)"/>
<path d="M0 0 C0.66 0.33 1.32 0.66 2 1 C-2.10168099 4.70474412 -6.70739435 7.38446682 -12 9 C-12.99 8.67 -13.98 8.34 -15 8 C-13.06453884 6.85072616 -11.12655872 5.70569358 -9.1875 4.5625 C-8.10855469 3.92441406 -7.02960938 3.28632813 -5.91796875 2.62890625 C-3 1 -3 1 0 0 Z " fill="#4C5B73" transform="translate(270,295)"/>
<path d="M0 0 C1.65 0.33 3.3 0.66 5 1 C4.34 3.97 3.68 6.94 3 10 C2.67 8.68 2.34 7.36 2 6 C0.35 6 -1.3 6 -3 6 C-3 5.34 -3 4.68 -3 4 C-2.34 4 -1.68 4 -1 4 C-0.67 2.68 -0.34 1.36 0 0 Z " fill="#6F7174" transform="translate(90,295)"/>
<path d="M0 0 C0 2.25 0 2.25 -1 5 C-3.48947194 6.76178014 -6.0894 8.08336933 -9 9 C-9.66 8.67 -10.32 8.34 -11 8 C-9.54712339 6.66072279 -8.08752741 5.32873153 -6.625 4 C-5.81289063 3.2575 -5.00078125 2.515 -4.1640625 1.75 C-2 0 -2 0 0 0 Z " fill="#4B5B70" transform="translate(355,236)"/>
<path d="M0 0 C0.66 0.33 1.32 0.66 2 1 C0.77065985 4.68802044 -0.93859378 5.72356973 -4 8 C-6.475 7.01 -6.475 7.01 -9 6 C-3.30379747 1.25316456 -3.30379747 1.25316456 0 0 Z " fill="#77777A" transform="translate(207,160)"/>
<path d="M0 0 C0.66 0.33 1.32 0.66 2 1 C0.17328621 3.53926173 -1.66877878 5.9050512 -4 8 C-7.375 8.4375 -7.375 8.4375 -10 8 C-6.97727468 4.74475735 -3.74281699 2.38179263 0 0 Z " fill="#4E6A94" transform="translate(321,294)"/>
<path d="M0 0 C2.64 0.99 5.28 1.98 8 3 C7.34 4.32 6.68 5.64 6 7 C4.02 6.34 2.04 5.68 0 5 C0 4.34 0 3.68 0 3 C-0.66 2.67 -1.32 2.34 -2 2 C-1.34 1.34 -0.68 0.68 0 0 Z " fill="#5A5B5E" transform="translate(220,154)"/>
<path d="M0 0 C3.59391114 1.33488128 6.75490696 2.96022723 10 5 C8.4375 6.25 8.4375 6.25 6 7 C3.42998985 5.93237266 1.3469597 4.53455057 -1 3 C-0.67 2.01 -0.34 1.02 0 0 Z " fill="#41618D" transform="translate(264,144)"/>
<path d="M0 0 C2.0625 0.4375 2.0625 0.4375 4 1 C-9.36893204 10 -9.36893204 10 -12 10 C-12 9.34 -12 8.68 -12 8 C-10.23596271 6.74163402 -8.41220501 5.5661735 -6.5625 4.4375 C-3.09563564 2.46466077 -3.09563564 2.46466077 0 0 Z " fill="#254276" transform="translate(300,274)"/>
<path d="M0 0 C1.8871875 0.0309375 1.8871875 0.0309375 3.8125 0.0625 C2.3275 2.0425 2.3275 2.0425 0.8125 4.0625 C-1.5306213 3.80688677 -3.86593403 3.46979228 -6.1875 3.0625 C-6.5175 2.4025 -6.8475 1.7425 -7.1875 1.0625 C-4.43671116 0.14557039 -2.82801087 -0.04636083 0 0 Z " fill="#58595C" transform="translate(188.1875,199.9375)"/>
<path d="M0 0 C1.32 0 2.64 0 4 0 C3.34 1.98 2.68 3.96 2 6 C1.01 6 0.02 6 -1 6 C-1.66 6.66 -2.32 7.32 -3 8 C-3 4 -3 4 -1.75 1.75 C-1.1725 1.1725 -0.595 0.595 0 0 Z " fill="#595A5A" transform="translate(211,244)"/>
<path d="M0 0 C-3.12621626 3.39417765 -5.56541027 5.6062718 -10 7 C-9.63206382 4.33246269 -9.18001672 3.18001672 -7.25 1.25 C-4.62056017 -0.21079991 -2.9625559 -0.24687966 0 0 Z " fill="#78797C" transform="translate(324,282)"/>
<path d="M0 0 C0.33 0.66 0.66 1.32 1 2 C1.99 2.33 2.98 2.66 4 3 C2.02 5.31 0.04 7.62 -2 10 C-2.66 8.68 -3.32 7.36 -4 6 C-3.01 6 -2.02 6 -1 6 C-1.33 5.01 -1.66 4.02 -2 3 C-1.34 2.01 -0.68 1.02 0 0 Z " fill="#737778" transform="translate(394,215)"/>
<path d="M0 0 C0 0.66 0 1.32 0 2 C-4 4 -8 6 -12 8 C-12 7.34 -12 6.68 -12 6 C-12.66 5.67 -13.32 5.34 -14 5 C-12.04350603 4.16235732 -10.08474444 3.33000941 -8.125 2.5 C-6.48917969 1.80390625 -6.48917969 1.80390625 -4.8203125 1.09375 C-2 0 -2 0 0 0 Z " fill="#818384" transform="translate(232,314)"/>
<path d="M0 0 C1.65 0.33 3.3 0.66 5 1 C3.625 3.0625 3.625 3.0625 1 5 C-2.40060685 5.05863115 -5.65559323 4.58718592 -9 4 C-9 3.67 -9 3.34 -9 3 C-6.36 3 -3.72 3 -1 3 C-0.67 2.01 -0.34 1.02 0 0 Z " fill="#808082" transform="translate(209,304)"/>
<path d="M0 0 C2 3 2 3 2 5 C2.66 5.33 3.32 5.66 4 6 C1.47211993 8.79872437 -0.20411134 10.45773019 -4 11 C-3.71125 10.29875 -3.4225 9.5975 -3.125 8.875 C-1.97866412 5.94547497 -0.97374346 2.99078347 0 0 Z " fill="#767779" transform="translate(201,210)"/>
<path d="M0 0 C0.99 0.66 1.98 1.32 3 2 C2.19185349 3.33597652 1.37836819 4.668725 0.5625 6 C0.11003906 6.7425 -0.34242187 7.485 -0.80859375 8.25 C-1.20175781 8.8275 -1.59492187 9.405 -2 10 C-2.33 10 -2.66 10 -3 10 C-3.33 7.69 -3.66 5.38 -4 3 C-3.01 3 -2.02 3 -1 3 C-0.67 2.01 -0.34 1.02 0 0 Z " fill="#78787A" transform="translate(104,273)"/>
<path d="M0 0 C0.33 0 0.66 0 1 0 C1.33 2.64 1.66 5.28 2 8 C-0.64 9.98 -3.28 11.96 -6 14 C-6 13.01 -6 12.02 -6 11 C-5.195625 10.236875 -4.39125 9.47375 -3.5625 8.6875 C-0.68594483 5.67062507 -0.28444914 4.07710437 0 0 Z " fill="#234278" transform="translate(351,229)"/>
<path d="M0 0 C0.66 0 1.32 0 2 0 C2.22036864 3.85645121 1.60355101 6.49223216 0 10 C-0.66 10 -1.32 10 -2 10 C-2.33 10.99 -2.66 11.98 -3 13 C-2.45144652 8.428721 -1.58255197 4.32564205 0 0 Z " fill="#74787B" transform="translate(72,313)"/>
<path d="M0 0 C0.99 0 1.98 0 3 0 C1.68938409 4.23429756 0.05643741 8.07407404 -2 12 C-2.33 12 -2.66 12 -3 12 C-3 10.35 -3 8.7 -3 7 C-2.34 7 -1.68 7 -1 7 C-0.67 4.69 -0.34 2.38 0 0 Z " fill="#828384" transform="translate(98,283)"/>
<path d="M0 0 C0.33 0.66 0.66 1.32 1 2 C-0.13126558 5.39379675 -1.22666082 6.78132865 -4 9 C-5.32 8.67 -6.64 8.34 -8 8 C-5.36 5.36 -2.72 2.72 0 0 Z " fill="#848587" transform="translate(185,232)"/>
<path d="M0 0 C0.66 0 1.32 0 2 0 C2 0.66 2 1.32 2 2 C3.32 2 4.64 2 6 2 C6.33 2.99 6.66 3.98 7 5 C5.35 5.66 3.7 6.32 2 7 C1.34 4.69 0.68 2.38 0 0 Z " fill="#565A5D" transform="translate(201,208)"/>
<path d="M0 0 C0.99 0.33 1.98 0.66 3 1 C3 1.66 3 2.32 3 3 C4.9600281 4.63676257 4.9600281 4.63676257 7 6 C4.33333333 6 1.66666667 6 -1 6 C-1.66 4.68 -2.32 3.36 -3 2 C-2.01 2 -1.02 2 0 2 C0 1.34 0 0.68 0 0 Z " fill="#54585C" transform="translate(163,186)"/>
<path d="M0 0 C0 3.23861295 -0.6250851 5.09740189 -2 8 C-2.99 8.495 -2.99 8.495 -4 9 C-4.99 8.34 -5.98 7.68 -7 7 C-4.69 4.69 -2.38 2.38 0 0 Z " fill="#6F7375" transform="translate(366,223)"/>
<path d="M0 0 C1.32 0.33 2.64 0.66 4 1 C2.70700306 3.88437779 1.34058637 5.87219421 -1 8 C-1.625 5.6875 -1.625 5.6875 -2 3 C-1.34 2.01 -0.68 1.02 0 0 Z " fill="#6F7274" transform="translate(403,204)"/>
<path d="M0 0 C0.66 0.66 1.32 1.32 2 2 C2.99 2 3.98 2 5 2 C5 5 5 5 4 8 C3.34 6.68 2.68 5.36 2 4 C0.35 4.33 -1.3 4.66 -3 5 C-1.125 1.125 -1.125 1.125 0 0 Z " fill="#828384" transform="translate(104,266)"/>
<path d="M0 0 C0.33 0 0.66 0 1 0 C1.03738281 0.62648437 1.07476562 1.25296875 1.11328125 1.8984375 C1.17902344 2.71570313 1.24476563 3.53296875 1.3125 4.375 C1.37050781 5.18710938 1.42851562 5.99921875 1.48828125 6.8359375 C1.82990528 9.37921338 1.82990528 9.37921338 5 11 C2.525 12.485 2.525 12.485 0 14 C0 9.38 0 4.76 0 0 Z " fill="#213D69" transform="translate(328,243)"/>
<path d="M0 0 C0.33 0 0.66 0 1 0 C1 3.3 1 6.6 1 10 C-0.32 10.33 -1.64 10.66 -3 11 C-5.25 9.0625 -5.25 9.0625 -7 7 C-6.34 6.67 -5.68 6.34 -5 6 C-2.375 7.4375 -2.375 7.4375 0 9 C0 6.03 0 3.06 0 0 Z " fill="#8DA0C3" transform="translate(310,160)"/>
<path d="M0 0 C0 0.66 0 1.32 0 2 C-2.97 2.66 -5.94 3.32 -9 4 C-9.33 3.34 -9.66 2.68 -10 2 C-6.49223216 0.39644899 -3.85645121 -0.22036864 0 0 Z " fill="#8A8F8D" transform="translate(298,145)"/>
<path d="M0 0 C0.66 0.33 1.32 0.66 2 1 C1.34 2.65 0.68 4.3 0 6 C-2.31 6.33 -4.62 6.66 -7 7 C-4.66666667 4.66666667 -2.33333333 2.33333333 0 0 Z " fill="#567096" transform="translate(350,273)"/>
<path d="M0 0 C3.3 0 6.6 0 10 0 C9.67 1.32 9.34 2.64 9 4 C8.01 4 7.02 4 6 4 C5.67 3.34 5.34 2.68 5 2 C2.47266765 1.34444881 2.47266765 1.34444881 0 1 C0 0.67 0 0.34 0 0 Z " fill="#394F79" transform="translate(307,264)"/>
<path d="M0 0 C0.99 0.33 1.98 0.66 3 1 C3 1.66 3 2.32 3 3 C3.66 3.33 4.32 3.66 5 4 C1.37673261 5.2077558 0.35853631 4.54311128 -3 3 C-2.01 2.67 -1.02 2.34 0 2 C0 1.34 0 0.68 0 0 Z M5 2 C7 3 7 3 7 3 Z " fill="#54595B" transform="translate(191,170)"/>
<path d="M0 0 C-0.99 0.495 -0.99 0.495 -2 1 C-0.35 1.33 1.3 1.66 3 2 C3 2.33 3 2.66 3 3 C-1.455 3.495 -1.455 3.495 -6 4 C-5.67 3.34 -5.34 2.68 -5 2 C-5.99 1.34 -6.98 0.68 -8 0 C-4.94736336 -0.98120464 -3.05263664 -0.98120464 0 0 Z " fill="#9A9B9A" transform="translate(336,134)"/>
<path d="M0 0 C0.94875 0.04125 1.8975 0.0825 2.875 0.125 C-0.00535092 2.36527294 -2.97366512 4.28672132 -6.125 6.125 C-5.28810868 1.94054341 -4.61542241 0.1846169 0 0 Z " fill="#757779" transform="translate(184.125,308.875)"/>
<path d="M0 0 C0.66 0.33 1.32 0.66 2 1 C1.01 2.32 0.02 3.64 -1 5 C-0.34 5.33 0.32 5.66 1 6 C0.34 7.32 -0.32 8.64 -1 10 C-2.4606285 7.35261084 -3 6.10551666 -3 3 C-1.5 1.3125 -1.5 1.3125 0 0 Z " fill="#989899" transform="translate(125,245)"/>
<path d="M0 0 C2.125 0.9375 2.125 0.9375 4 2 C3.01 2.495 3.01 2.495 2 3 C2.66 3.66 3.32 4.32 4 5 C3.21625 4.95875 2.4325 4.9175 1.625 4.875 C-1.16116119 4.71271266 -1.16116119 4.71271266 -3 7 C-3 4 -3 4 -2 1 C-1.34 0.67 -0.68 0.34 0 0 Z " fill="#56585A" transform="translate(215,157)"/>
<path d="M0 0 C0.66 0.33 1.32 0.66 2 1 C2 1.99 2 2.98 2 4 C-3.75 5.125 -3.75 5.125 -6 4 C-4.02 2.68 -2.04 1.36 0 0 Z " fill="#4D6995" transform="translate(309,302)"/>
<path d="M0 0 C0.66 0.33 1.32 0.66 2 1 C0.9024777 3.99324263 0.32317108 4.84610901 -2.625 6.25 C-3.40875 6.4975 -4.1925 6.745 -5 7 C-3.70700306 4.11562221 -2.34058637 2.12780579 0 0 Z " fill="#7D7E7F" transform="translate(100,271)"/>
<path d="M0 0 C1.98 0 3.96 0 6 0 C5.67 1.65 5.34 3.3 5 5 C4.01 4.67 3.02 4.34 2 4 C2 3.34 2 2.68 2 2 C1.01 2.495 1.01 2.495 0 3 C0 2.01 0 1.02 0 0 Z " fill="#5F6264" transform="translate(105,266)"/>
<path d="M0 0 C1.65 0 3.3 0 5 0 C4.625 2.4375 4.625 2.4375 4 5 C3.01 5.495 3.01 5.495 2 6 C2 5.01 2 4.02 2 3 C1.01 2.67 0.02 2.34 -1 2 C-0.67 1.34 -0.34 0.68 0 0 Z " fill="#6D6D6F" transform="translate(109,263)"/>
<path d="M0 0 C0.33 0.99 0.66 1.98 1 3 C-0.32 3.99 -1.64 4.98 -3 6 C-3.33 5.01 -3.66 4.02 -4 3 C-4.66 2.67 -5.32 2.34 -6 2 C-3 0 -3 0 0 0 Z " fill="#7C7D7F" transform="translate(231,258)"/>
<path d="M0 0 C0.99 0.33 1.98 0.66 3 1 C3.6875 3.0625 3.6875 3.0625 4 5 C2.02 5.99 2.02 5.99 0 7 C0.33 5.68 0.66 4.36 1 3 C0.01 2.67 -0.98 2.34 -2 2 C-1.34 1.34 -0.68 0.68 0 0 Z " fill="#7F7F7F" transform="translate(214,241)"/>
<path d="M0 0 C-1 1.5 -1 1.5 -3 3 C-5.71846235 3.27345479 -8.25677199 3.13491285 -11 3 C-7.11595442 0.41063628 -4.5725325 -0.12358196 0 0 Z " fill="#666867" transform="translate(326,137)"/>
<path d="M0 0 C0 0.99 0 1.98 0 3 C-2.35438733 4.42944945 -3.48032433 5.08661261 -6.25 4.625 C-6.8275 4.41875 -7.405 4.2125 -8 4 C-5.37801226 1.84622436 -3.35595828 0.59927826 0 0 Z " fill="#46638A" transform="translate(331,289)"/>
<path d="M0 0 C1.65 1.65 3.3 3.3 5 5 C3.68 5.33 2.36 5.66 1 6 C0.01 4.68 -0.98 3.36 -2 2 C-1.34 1.34 -0.68 0.68 0 0 Z " fill="#747577" transform="translate(184,267)"/>
<path d="M0 0 C0.66 0.33 1.32 0.66 2 1 C-0.31 3.64 -2.62 6.28 -5 9 C-5.66 8.67 -6.32 8.34 -7 8 C-7 7.34 -7 6.68 -7 6 C-5.46875 4.4921875 -5.46875 4.4921875 -3.5 2.875 C-2.8503125 2.33617187 -2.200625 1.79734375 -1.53125 1.2421875 C-1.0259375 0.83226562 -0.520625 0.42234375 0 0 Z " fill="#8A8C8E" transform="translate(193,259)"/>
<path d="M0 0 C0.66 0.33 1.32 0.66 2 1 C0.8125 3.4375 0.8125 3.4375 -1 6 C-3.6875 6.8125 -3.6875 6.8125 -6 7 C-4.19587357 3.73539027 -3.16605307 2.11070205 0 0 Z " fill="#646C7D" transform="translate(320,262)"/>
<path d="M0 0 C0.33 0.66 0.66 1.32 1 2 C0.34 2 -0.32 2 -1 2 C-0.67 3.32 -0.34 4.64 0 6 C-1.65 6 -3.3 6 -5 6 C-4.1875 3.5625 -4.1875 3.5625 -3 1 C-2.01 0.67 -1.02 0.34 0 0 Z " fill="#616163" transform="translate(119,253)"/>
<path d="M0 0 C1.98 0.495 1.98 0.495 4 1 C4 1.99 4 2.98 4 4 C2.35 4.33 0.7 4.66 -1 5 C-0.67 3.35 -0.34 1.7 0 0 Z " fill="#565A5A" transform="translate(217,248)"/>
<path d="M0 0 C1.32 0.33 2.64 0.66 4 1 C2.68 2.65 1.36 4.3 0 6 C-0.99 5.67 -1.98 5.34 -3 5 C-2.01 3.35 -1.02 1.7 0 0 Z " fill="#6F7274" transform="translate(176,241)"/>
<path d="M0 0 C1.32 0.33 2.64 0.66 4 1 C4 2.32 4 3.64 4 5 C3.01 5.495 3.01 5.495 2 6 C0 3 0 3 0 0 Z " fill="#7A7D7C" transform="translate(236,229)"/>
<path d="M0 0 C3.96 1.98 3.96 1.98 8 4 C4.93109813 5.53445094 2.29905734 4.54984289 -1 4 C-0.67 2.68 -0.34 1.36 0 0 Z " fill="#6C84A7" transform="translate(343,188)"/>
<path d="M0 0 C1.32 0.66 2.64 1.32 4 2 C4 3.65 4 5.3 4 7 C2.02 6.34 0.04 5.68 -2 5 C-1.01 4.34 -0.02 3.68 1 3 C0.67 2.01 0.34 1.02 0 0 Z " fill="#355691" transform="translate(292,160)"/>
<path d="M0 0 C0.66 0.33 1.32 0.66 2 1 C1.01 2.98 0.02 4.96 -1 7 C-2.32 5.68 -3.64 4.36 -5 3 C-2.625 1.4375 -2.625 1.4375 0 0 Z " fill="#838486" transform="translate(196,166)"/>
<path d="M0 0 C0.99 0.33 1.98 0.66 3 1 C2.67 4.3 2.34 7.6 2 11 C1.67 11 1.34 11 1 11 C1 8.03 1 5.06 1 2 C-0.32 2.33 -1.64 2.66 -3 3 C-2.01 2.01 -1.02 1.02 0 0 Z " fill="#919195" transform="translate(244,139)"/>
<path d="M0 0 C0.94875 0.04125 1.8975 0.0825 2.875 0.125 C2.545 1.115 2.215 2.105 1.875 3.125 C-0.435 2.795 -2.745 2.465 -5.125 2.125 C-3.125 0.125 -3.125 0.125 0 0 Z " fill="#555658" transform="translate(343.125,131.875)"/>
<path d="M0 0 C1.32 0.66 2.64 1.32 4 2 C2.35 3.65 0.7 5.3 -1 7 C-0.67 4.69 -0.34 2.38 0 0 Z " fill="#757778" transform="translate(171,317)"/>
<path d="M0 0 C1.65 0.33 3.3 0.66 5 1 C3.35 2.65 1.7 4.3 0 6 C-1 3 -1 3 0 0 Z " fill="#7D7E83" transform="translate(329,274)"/>
<path d="M0 0 C0 3.10551666 -0.5393715 4.35261084 -2 7 C-3.32 6.67 -4.64 6.34 -6 6 C-4.02 4.02 -2.04 2.04 0 0 Z " fill="#707172" transform="translate(169,249)"/>
<path d="M0 0 C0.66 0.33 1.32 0.66 2 1 C1.01 2.485 1.01 2.485 0 4 C0.33 4.99 0.66 5.98 1 7 C0.01 7.495 0.01 7.495 -1 8 C-1.99 6.68 -2.98 5.36 -4 4 C-2.68 2.68 -1.36 1.36 0 0 Z " fill="#979999" transform="translate(133,238)"/>
<path d="M0 0 C-0.375 1.9375 -0.375 1.9375 -1 4 C-1.99 4.495 -1.99 4.495 -3 5 C-3.66 4.34 -4.32 3.68 -5 3 C-5 2.34 -5 1.68 -5 1 C-3 0 -3 0 0 0 Z " fill="#696A6D" transform="translate(391,223)"/>
<path d="M0 0 C1.32 0 2.64 0 4 0 C3 3 3 3 2 5 C1.34 5 0.68 5 0 5 C-0.5625 3.0625 -0.5625 3.0625 -1 1 C-0.67 0.67 -0.34 0.34 0 0 Z " fill="#5B5C5E" transform="translate(159,193)"/>
</svg>
