<?xml version="1.0" encoding="UTF-8"?>
<!DOCTYPE svg PUBLIC "-//W3C//DTD SVG 1.1//EN" "http://www.w3.org/Graphics/SVG/1.1/DTD/svg11.dtd">
<svg xmlns="http://www.w3.org/2000/svg" version="1.1" width="512px" height="512px" style="shape-rendering:geometricPrecision; text-rendering:geometricPrecision; image-rendering:optimizeQuality; fill-rule:evenodd; clip-rule:evenodd" xmlns:xlink="http://www.w3.org/1999/xlink">
<g><path style="opacity:0.988" fill="#ef0047" d="M 163.5,-0.5 C 166.167,-0.5 168.833,-0.5 171.5,-0.5C 186.298,14.7985 201.298,29.9652 216.5,45C 214.942,45.21 213.609,45.71 212.5,46.5C 210.5,46.5 208.5,46.5 206.5,46.5C 205.391,45.71 204.058,45.21 202.5,45C 187.578,30.5811 173.245,15.7478 159.5,0.5C 161.099,0.767809 162.432,0.434475 163.5,-0.5 Z"/></g>
<g><path style="opacity:0.975" fill="#ee004d" d="M 171.5,-0.5 C 176.833,-0.5 182.167,-0.5 187.5,-0.5C 202.298,14.7985 217.298,29.9652 232.5,45C 230.292,45.1909 228.292,45.6909 226.5,46.5C 221.833,46.5 217.167,46.5 212.5,46.5C 213.609,45.71 214.942,45.21 216.5,45C 201.298,29.9652 186.298,14.7985 171.5,-0.5 Z"/></g>
<g><path style="opacity:0.998" fill="#ed0054" d="M 187.5,-0.5 C 192.167,-0.5 196.833,-0.5 201.5,-0.5C 216.298,14.7985 231.298,29.9652 246.5,45C 245.944,45.3826 245.611,45.8826 245.5,46.5C 239.167,46.5 232.833,46.5 226.5,46.5C 228.292,45.6909 230.292,45.1909 232.5,45C 217.298,29.9652 202.298,14.7985 187.5,-0.5 Z"/></g>
<g><path style="opacity:0.981" fill="#eb005a" d="M 201.5,-0.5 C 206.167,-0.5 210.833,-0.5 215.5,-0.5C 230.833,15.1667 246.167,30.8333 261.5,46.5C 256.167,46.5 250.833,46.5 245.5,46.5C 245.611,45.8826 245.944,45.3826 246.5,45C 231.298,29.9652 216.298,14.7985 201.5,-0.5 Z"/></g>
<g><path style="opacity:0.975" fill="#ea0060" d="M 215.5,-0.5 C 220.167,-0.5 224.833,-0.5 229.5,-0.5C 244.298,14.7985 259.298,29.9652 274.5,45C 276.382,45.1981 278.048,45.6981 279.5,46.5C 273.5,46.5 267.5,46.5 261.5,46.5C 246.167,30.8333 230.833,15.1667 215.5,-0.5 Z"/></g>
<g><path style="opacity:0.986" fill="#e90067" d="M 229.5,-0.5 C 234.833,-0.5 240.167,-0.5 245.5,-0.5C 260.833,15.1667 276.167,30.8333 291.5,46.5C 287.5,46.5 283.5,46.5 279.5,46.5C 278.048,45.6981 276.382,45.1981 274.5,45C 259.298,29.9652 244.298,14.7985 229.5,-0.5 Z"/></g>
<g><path style="opacity:1" fill="#e7006d" d="M 245.5,-0.5 C 250.167,-0.5 254.833,-0.5 259.5,-0.5C 274.298,14.7985 289.298,29.9652 304.5,45C 306.382,45.1981 308.048,45.6981 309.5,46.5C 303.5,46.5 297.5,46.5 291.5,46.5C 276.167,30.8333 260.833,15.1667 245.5,-0.5 Z"/></g>
<g><path style="opacity:0.991" fill="#e60073" d="M 259.5,-0.5 C 263.833,-0.5 268.167,-0.5 272.5,-0.5C 287.131,14.6319 301.965,29.6319 317,44.5C 317.464,45.0944 317.631,45.7611 317.5,46.5C 314.833,46.5 312.167,46.5 309.5,46.5C 308.048,45.6981 306.382,45.1981 304.5,45C 289.298,29.9652 274.298,14.7985 259.5,-0.5 Z"/></g>
<g><path style="opacity:0.987" fill="#e50079" d="M 272.5,-0.5 C 277.167,-0.5 281.833,-0.5 286.5,-0.5C 301.833,15.1667 317.167,30.8333 332.5,46.5C 327.5,46.5 322.5,46.5 317.5,46.5C 317.631,45.7611 317.464,45.0944 317,44.5C 301.965,29.6319 287.131,14.6319 272.5,-0.5 Z"/></g>
<g><path style="opacity:0.991" fill="#e4007f" d="M 286.5,-0.5 C 291.5,-0.5 296.5,-0.5 301.5,-0.5C 317.833,15.5 334.167,31.5 350.5,47.5C 344.523,46.8354 338.523,46.502 332.5,46.5C 317.167,30.8333 301.833,15.1667 286.5,-0.5 Z"/></g>
<g><path style="opacity:0.988" fill="#e20086" d="M 301.5,-0.5 C 306.5,-0.5 311.5,-0.5 316.5,-0.5C 332.167,15.5 347.833,31.5 363.5,47.5C 359.167,47.5 354.833,47.5 350.5,47.5C 334.167,31.5 317.833,15.5 301.5,-0.5 Z"/></g>
<g><path style="opacity:0.985" fill="#e1008c" d="M 316.5,-0.5 C 321.167,-0.5 325.833,-0.5 330.5,-0.5C 346.86,16.527 363.527,33.1937 380.5,49.5C 374.794,49.0297 369.127,48.363 363.5,47.5C 347.833,31.5 332.167,15.5 316.5,-0.5 Z"/></g>
<g><path style="opacity:0.989" fill="#e00092" d="M 330.5,-0.5 C 335.5,-0.5 340.5,-0.5 345.5,-0.5C 345.369,0.238911 345.536,0.905578 346,1.5C 363.368,18.7014 380.535,36.0348 397.5,53.5C 391.897,51.9126 386.23,50.5793 380.5,49.5C 363.527,33.1937 346.86,16.527 330.5,-0.5 Z"/></g>
<g><path style="opacity:0.981" fill="#de0099" d="M 345.5,-0.5 C 346.167,-0.5 346.833,-0.5 347.5,-0.5C 351.298,0.483418 355.298,0.816751 359.5,0.5C 382.219,21.716 404.552,43.5493 426.5,66C 426.272,66.3988 425.938,66.5654 425.5,66.5C 416.953,60.5611 407.62,56.2278 397.5,53.5C 380.535,36.0348 363.368,18.7014 346,1.5C 345.536,0.905578 345.369,0.238911 345.5,-0.5 Z"/></g>
<g><path style="opacity:0.97" fill="#f10041" d="M 143.5,0.5 C 148.833,0.5 154.167,0.5 159.5,0.5C 173.245,15.7478 187.578,30.5811 202.5,45C 204.058,45.21 205.391,45.71 206.5,46.5C 200.167,46.5 193.833,46.5 187.5,46.5C 187.611,45.8826 187.944,45.3826 188.5,45C 173.605,29.9376 158.605,15.1043 143.5,0.5 Z"/></g>
<g><path style="opacity:0.993" fill="#dd009f" d="M 359.5,0.5 C 364.845,0.686538 370.178,1.01987 375.5,1.5C 420.5,45.8333 465.167,90.5 509.5,135.5C 509.739,139.842 510.073,144.176 510.5,148.5C 488.085,127.586 466.085,106.086 444.5,84C 443.906,83.5357 443.239,83.369 442.5,83.5C 437.14,77.4729 431.473,71.8063 425.5,66.5C 425.938,66.5654 426.272,66.3988 426.5,66C 404.552,43.5493 382.219,21.716 359.5,0.5 Z"/></g>
<g><path style="opacity:0.988" fill="#f2013b" d="M 143.5,0.5 C 158.605,15.1043 173.605,29.9376 188.5,45C 187.944,45.3826 187.611,45.8826 187.5,46.5C 183.833,46.5 180.167,46.5 176.5,46.5C 162.535,32.0348 148.369,17.7015 134,3.5C 133.536,2.90558 133.369,2.23891 133.5,1.5C 136.939,1.74707 140.272,1.41373 143.5,0.5 Z"/></g>
<g><path style="opacity:0.986" fill="#f30034" d="M 133.5,1.5 C 133.369,2.23891 133.536,2.90558 134,3.5C 148.369,17.7015 162.535,32.0348 176.5,46.5C 171.473,46.5029 166.473,46.8363 161.5,47.5C 147.167,32.8333 132.833,18.1667 118.5,3.5C 123.547,3.0776 128.547,2.41093 133.5,1.5 Z"/></g>
<g><path style="opacity:0.993" fill="#dc00a5" d="M 375.5,1.5 C 381.709,2.02086 387.709,3.02086 393.5,4.5C 430.833,42.5 468.5,80.1667 506.5,117.5C 507.979,123.291 508.979,129.291 509.5,135.5C 465.167,90.5 420.5,45.8333 375.5,1.5 Z"/></g>
<g><path style="opacity:0.982" fill="#f5002e" d="M 118.5,3.5 C 132.833,18.1667 147.167,32.8333 161.5,47.5C 156.833,47.5 152.167,47.5 147.5,47.5C 134.167,33.8333 120.833,20.1667 107.5,6.5C 111.135,5.37318 114.802,4.37318 118.5,3.5 Z"/></g>
<g><path style="opacity:0.992" fill="#da00ab" d="M 393.5,4.5 C 399.725,4.94441 405.725,6.27774 411.5,8.5C 440.748,39.2494 470.581,69.5827 501,99.5C 501.464,98.9056 501.631,98.2389 501.5,97.5C 504.083,103.83 505.749,110.497 506.5,117.5C 468.5,80.1667 430.833,42.5 393.5,4.5 Z"/></g>
<g><path style="opacity:0.983" fill="#f60028" d="M 107.5,6.5 C 120.833,20.1667 134.167,33.8333 147.5,47.5C 143.13,48.1022 138.797,48.7689 134.5,49.5C 134.631,48.7611 134.464,48.0944 134,47.5C 121.298,34.9652 108.798,22.2985 96.5,9.5C 100.019,8.03638 103.686,7.03638 107.5,6.5 Z"/></g>
<g><path style="opacity:0.988" fill="#d900b2" d="M 411.5,8.5 C 449.506,19.6709 477.34,43.0043 495,78.5C 497.746,84.6538 499.913,90.9872 501.5,97.5C 501.631,98.2389 501.464,98.9056 501,99.5C 470.581,69.5827 440.748,39.2494 411.5,8.5 Z"/></g>
<g><path style="opacity:0.987" fill="#f80020" d="M 96.5,9.5 C 108.798,22.2985 121.298,34.9652 134,47.5C 134.464,48.0944 134.631,48.7611 134.5,49.5C 127.042,50.1917 119.709,51.525 112.5,53.5C 112.631,52.7611 112.464,52.0944 112,51.5C 100.298,39.9651 88.798,28.2985 77.5,16.5C 83.7245,13.8885 90.0578,11.5551 96.5,9.5 Z"/></g>
<g><path style="opacity:0.986" fill="#fa0016" d="M 77.5,16.5 C 88.798,28.2985 100.298,39.9651 112,51.5C 112.464,52.0944 112.631,52.7611 112.5,53.5C 108.245,55.3629 103.912,57.0296 99.5,58.5C 88.5,46.5 77.5,34.5 66.5,22.5C 70.1667,20.5 73.8333,18.5 77.5,16.5 Z"/></g>
<g><path style="opacity:0.985" fill="#fc000b" d="M 66.5,22.5 C 77.5,34.5 88.5,46.5 99.5,58.5C 93.6412,61.5928 87.9745,64.9261 82.5,68.5C 71.8333,57.1667 60.8333,46.1667 49.5,35.5C 54.588,30.4508 60.2547,26.1175 66.5,22.5 Z"/></g>
<g><path style="opacity:0.982" fill="#fe1200" d="M 49.5,35.5 C 60.8333,46.1667 71.8333,57.1667 82.5,68.5C 66.2486,82.6646 55.9153,100.331 51.5,121.5C 50.8826,121.611 50.3826,121.944 50,122.5C 37.9651,110.298 25.7985,98.298 13.5,86.5C 20.7721,66.2175 32.7721,49.2175 49.5,35.5 Z"/></g>
<g><path style="opacity:0.982" fill="#de0099" d="M 442.5,83.5 C 443.239,83.369 443.906,83.5357 444.5,84C 466.085,106.086 488.085,127.586 510.5,148.5C 510.181,153.363 510.514,158.03 511.5,162.5C 511.5,163.5 511.5,164.5 511.5,165.5C 493.585,149.087 476.085,132.087 459,114.5C 458.601,114.728 458.435,115.062 458.5,115.5C 455.267,103.815 449.934,93.1483 442.5,83.5 Z"/></g>
<g><path style="opacity:0.971" fill="#e60093" d="M 390.5,87.5 C 410.699,88.6996 421.699,99.3663 423.5,119.5C 422.883,119.611 422.383,119.944 422,120.5C 410.91,109.913 400.41,98.9133 390.5,87.5 Z"/></g>
<g><path style="opacity:0.989" fill="#e9008d" d="M 390.5,87.5 C 400.41,98.9133 410.91,109.913 422,120.5C 422.383,119.944 422.883,119.611 423.5,119.5C 423.289,124.6 421.955,129.266 419.5,133.5C 405.167,119.833 391.167,105.833 377.5,91.5C 381.42,89.1722 385.754,87.8389 390.5,87.5 Z"/></g>
<g><path style="opacity:0.987" fill="#eb0086" d="M 377.5,91.5 C 391.167,105.833 405.167,119.833 419.5,133.5C 417.975,136.563 415.975,139.23 413.5,141.5C 398.586,128.088 384.086,114.088 370,99.5C 369.536,98.9056 369.369,98.2389 369.5,97.5C 371.8,95.016 374.467,93.016 377.5,91.5 Z"/></g>
<g><path style="opacity:0.989" fill="#ed007f" d="M 369.5,97.5 C 369.369,98.2389 369.536,98.9056 370,99.5C 384.086,114.088 398.586,128.088 413.5,141.5C 410.165,144.839 406.165,147.172 401.5,148.5C 389.22,134.552 376.22,121.218 362.5,108.5C 364.098,104.289 366.432,100.622 369.5,97.5 Z"/></g>
<g><path style="opacity:0.982" fill="#ff3200" d="M 13.5,86.5 C 25.7985,98.298 37.9651,110.298 50,122.5C 50.3826,121.944 50.8826,121.611 51.5,121.5C 48.9077,134.012 47.5743,146.679 47.5,159.5C 33.479,144.812 19.1457,130.479 4.5,116.5C 5.96934,105.937 8.96934,95.937 13.5,86.5 Z"/></g>
<g><path style="opacity:0.986" fill="#f00078" d="M 362.5,108.5 C 376.22,121.218 389.22,134.552 401.5,148.5C 378.037,152.561 364.37,142.728 360.5,119C 361.214,115.494 361.881,111.994 362.5,108.5 Z"/></g>
<g><path style="opacity:0.983" fill="#e00092" d="M 511.5,165.5 C 511.5,170.5 511.5,175.5 511.5,180.5C 494.833,164.167 478.167,147.833 461.5,131.5C 460.5,126.165 459.5,120.832 458.5,115.5C 458.435,115.062 458.601,114.728 459,114.5C 476.085,132.087 493.585,149.087 511.5,165.5 Z"/></g>
<g><path style="opacity:0.992" fill="#fe003b" d="M 248.5,123.5 C 252.167,123.5 255.833,123.5 259.5,123.5C 301.549,166.55 344.216,208.883 387.5,250.5C 387.5,254.833 387.5,259.167 387.5,263.5C 340.417,217.918 293.75,171.751 247.5,125C 248.056,124.617 248.389,124.117 248.5,123.5 Z"/></g>
<g><path style="opacity:0.993" fill="#fd0041" d="M 259.5,123.5 C 264.493,123.916 269.493,124.249 274.5,124.5C 310.749,162.25 347.582,199.583 385,236.5C 385.399,236.272 385.565,235.938 385.5,235.5C 386.593,240.306 387.259,245.306 387.5,250.5C 344.216,208.883 301.549,166.55 259.5,123.5 Z"/></g>
<g><path style="opacity:0.984" fill="#ff3f00" d="M 4.5,116.5 C 19.1457,130.479 33.479,144.812 47.5,159.5C 46.793,167.146 46.4597,174.813 46.5,182.5C 31.5,167.167 16.5,151.833 1.5,136.5C 2.01298,129.722 3.01298,123.055 4.5,116.5 Z"/></g>
<g><path style="opacity:0.979" fill="#fe002e" d="M 233.5,125.5 C 248.798,141.299 264.298,156.965 280,172.5C 280.464,173.094 280.631,173.761 280.5,174.5C 274.452,172.818 268.452,171.485 262.5,170.5C 263.239,170.631 263.906,170.464 264.5,170C 250.298,155.965 236.298,141.799 222.5,127.5C 226.136,126.674 229.803,126.008 233.5,125.5 Z"/></g>
<g><path style="opacity:0.991" fill="#fd0047" d="M 274.5,124.5 C 279.905,125.518 285.239,126.851 290.5,128.5C 320.833,159.5 351.5,190.167 382.5,220.5C 384.286,225.317 385.286,230.317 385.5,235.5C 385.565,235.938 385.399,236.272 385,236.5C 347.582,199.583 310.749,162.25 274.5,124.5 Z"/></g>
<g><path style="opacity:0.984" fill="#fe0028" d="M 222.5,127.5 C 236.298,141.799 250.298,155.965 264.5,170C 263.906,170.464 263.239,170.631 262.5,170.5C 258.833,170.5 255.167,170.5 251.5,170.5C 238.782,156.78 225.448,143.78 211.5,131.5C 214.955,129.791 218.621,128.458 222.5,127.5 Z"/></g>
<g><path style="opacity:0.982" fill="#fd004f" d="M 290.5,128.5 C 330.904,140.065 359.737,165.065 377,203.5C 379.34,209.019 381.173,214.686 382.5,220.5C 351.5,190.167 320.833,159.5 290.5,128.5 Z"/></g>
<g><path style="opacity:0.981" fill="#fe0022" d="M 211.5,131.5 C 225.448,143.78 238.782,156.78 251.5,170.5C 247.439,171.006 243.439,171.673 239.5,172.5C 228.423,159.92 216.756,147.753 204.5,136C 203.552,135.517 202.552,135.351 201.5,135.5C 204.53,133.597 207.863,132.263 211.5,131.5 Z"/></g>
<g><path style="opacity:0.987" fill="#e1008c" d="M 461.5,131.5 C 478.167,147.833 494.833,164.167 511.5,180.5C 511.5,184.833 511.5,189.167 511.5,193.5C 510.761,193.631 510.094,193.464 509.5,193C 494.299,177.632 478.965,162.465 463.5,147.5C 462.656,142.231 461.989,136.897 461.5,131.5 Z"/></g>
<g><path style="opacity:0.983" fill="#fe001c" d="M 201.5,135.5 C 202.552,135.351 203.552,135.517 204.5,136C 216.756,147.753 228.423,159.92 239.5,172.5C 235.833,173.167 232.167,173.833 228.5,174.5C 216.167,163.167 203.833,151.833 191.5,140.5C 194.515,138.326 197.849,136.659 201.5,135.5 Z"/></g>
<g><path style="opacity:0.981" fill="#fe0011" d="M 191.5,140.5 C 203.833,151.833 216.167,163.167 228.5,174.5C 222.565,177.467 216.565,180.467 210.5,183.5C 199.473,171.806 188.14,160.473 176.5,149.5C 181.255,146.075 186.255,143.075 191.5,140.5 Z"/></g>
<g><path style="opacity:0.987" fill="#e20086" d="M 463.5,147.5 C 478.965,162.465 494.299,177.632 509.5,193C 510.094,193.464 510.761,193.631 511.5,193.5C 511.5,198.5 511.5,203.5 511.5,208.5C 495.14,192.806 479.14,176.806 463.5,160.5C 463.5,156.167 463.5,151.833 463.5,147.5 Z"/></g>
<g><path style="opacity:0.981" fill="#ff4c00" d="M 1.5,136.5 C 16.5,151.833 31.5,167.167 46.5,182.5C 46.5,190.167 46.5,197.833 46.5,205.5C 45.8826,205.611 45.3826,205.944 45,206.5C 30.2985,191.631 15.4652,176.965 0.5,162.5C 0.367961,153.809 0.701295,145.142 1.5,136.5 Z"/></g>
<g><path style="opacity:0.976" fill="#ff0103" d="M 176.5,149.5 C 188.14,160.473 199.473,171.806 210.5,183.5C 202.936,188.722 195.936,194.722 189.5,201.5C 179.757,190.253 169.424,179.42 158.5,169C 157.906,168.536 157.239,168.369 156.5,168.5C 162.535,161.464 169.202,155.131 176.5,149.5 Z"/></g>
<g><path style="opacity:0.991" fill="#e40080" d="M 463.5,160.5 C 479.14,176.806 495.14,192.806 511.5,208.5C 511.5,213.833 511.5,219.167 511.5,224.5C 495.833,209.167 480.167,193.833 464.5,178.5C 464.407,172.484 464.074,166.484 463.5,160.5 Z"/></g>
<g><path style="opacity:0.966" fill="#ff5400" d="M -0.5,162.5 C -0.166667,162.5 0.166667,162.5 0.5,162.5C 15.4652,176.965 30.2985,191.631 45,206.5C 45.3826,205.944 45.8826,205.611 46.5,205.5C 46.5,211.167 46.5,216.833 46.5,222.5C 45.71,221.391 45.21,220.058 45,218.5C 29.9652,203.298 14.7985,188.298 -0.5,173.5C -0.5,169.833 -0.5,166.167 -0.5,162.5 Z"/></g>
<g><path style="opacity:0.978" fill="#ff5a00" d="M -0.5,173.5 C 14.7985,188.298 29.9652,203.298 45,218.5C 45.21,220.058 45.71,221.391 46.5,222.5C 46.5,225.167 46.5,227.833 46.5,230.5C 31.0855,216.588 16.0855,202.088 1.5,187C 0.905578,186.536 0.238911,186.369 -0.5,186.5C -0.5,182.167 -0.5,177.833 -0.5,173.5 Z"/></g>
<g><path style="opacity:0.98" fill="#ff1600" d="M 156.5,168.5 C 157.239,168.369 157.906,168.536 158.5,169C 169.424,179.42 179.757,190.253 189.5,201.5C 181.055,213.389 175.055,226.389 171.5,240.5C 159.5,227.833 147.167,215.5 134.5,203.5C 139.586,190.308 146.919,178.641 156.5,168.5 Z"/></g>
<g><path style="opacity:0.989" fill="#e50079" d="M 464.5,178.5 C 480.167,193.833 495.833,209.167 511.5,224.5C 511.5,229.167 511.5,233.833 511.5,238.5C 495.473,223.14 479.806,207.473 464.5,191.5C 464.5,187.167 464.5,182.833 464.5,178.5 Z"/></g>
<g><path style="opacity:0.974" fill="#ff6000" d="M -0.5,186.5 C 0.238911,186.369 0.905578,186.536 1.5,187C 16.0855,202.088 31.0855,216.588 46.5,230.5C 46.5,235.167 46.5,239.833 46.5,244.5C 31.1937,228.527 15.527,212.86 -0.5,197.5C -0.5,193.833 -0.5,190.167 -0.5,186.5 Z"/></g>
<g><path style="opacity:0.988" fill="#e60073" d="M 464.5,191.5 C 479.806,207.473 495.473,223.14 511.5,238.5C 511.5,242.833 511.5,247.167 511.5,251.5C 495.084,236.085 479.417,220.085 464.5,203.5C 464.5,199.5 464.5,195.5 464.5,191.5 Z"/></g>
<g><path style="opacity:0.98" fill="#fe0035" d="M 248.5,123.5 C 248.389,124.117 248.056,124.617 247.5,125C 293.75,171.751 340.417,217.918 387.5,263.5C 386.906,268.186 386.239,272.853 385.5,277.5C 369.167,261.5 352.833,245.5 336.5,229.5C 326.463,202.463 307.796,184.13 280.5,174.5C 280.631,173.761 280.464,173.094 280,172.5C 264.298,156.965 248.798,141.299 233.5,125.5C 238.467,124.689 243.467,124.022 248.5,123.5 Z"/></g>
<g><path style="opacity:0.984" fill="#ff6700" d="M -0.5,197.5 C 15.527,212.86 31.1937,228.527 46.5,244.5C 46.5,249.167 46.5,253.833 46.5,258.5C 31.1937,242.527 15.527,226.86 -0.5,211.5C -0.5,206.833 -0.5,202.167 -0.5,197.5 Z"/></g>
<g><path style="opacity:0.992" fill="#e7006d" d="M 464.5,203.5 C 479.417,220.085 495.084,236.085 511.5,251.5C 511.5,256.167 511.5,260.833 511.5,265.5C 495.473,250.14 479.806,234.473 464.5,218.5C 464.5,213.5 464.5,208.5 464.5,203.5 Z"/></g>
<g><path style="opacity:0.991" fill="#ff6d00" d="M -0.5,211.5 C 15.527,226.86 31.1937,242.527 46.5,258.5C 46.5,261.167 46.5,263.833 46.5,266.5C 45.7784,266.918 45.2784,267.584 45,268.5C 29.9652,253.298 14.7985,238.298 -0.5,223.5C -0.5,219.5 -0.5,215.5 -0.5,211.5 Z"/></g>
<g><path style="opacity:0.984" fill="#e90067" d="M 464.5,218.5 C 479.806,234.473 495.473,250.14 511.5,265.5C 511.5,270.833 511.5,276.167 511.5,281.5C 496.201,266.702 481.035,251.702 466,236.5C 465.722,237.416 465.222,238.082 464.5,238.5C 464.5,231.833 464.5,225.167 464.5,218.5 Z"/></g>
<g><path style="opacity:0.985" fill="#ff3200" d="M 134.5,203.5 C 147.167,215.5 159.5,227.833 171.5,240.5C 169.843,252.969 170.51,265.302 173.5,277.5C 157.115,262.116 141.448,246.116 126.5,229.5C 127.788,220.31 130.455,211.643 134.5,203.5 Z"/></g>
<g><path style="opacity:0.983" fill="#ff7300" d="M -0.5,223.5 C 14.7985,238.298 29.9652,253.298 45,268.5C 45.2784,267.584 45.7784,266.918 46.5,266.5C 46.5,270.833 46.5,275.167 46.5,279.5C 45.8826,279.611 45.3826,279.944 45,280.5C 29.9652,265.298 14.7985,250.298 -0.5,235.5C -0.5,231.5 -0.5,227.5 -0.5,223.5 Z"/></g>
<g><path style="opacity:0.98" fill="#fe002e" d="M 336.5,229.5 C 352.833,245.5 369.167,261.5 385.5,277.5C 384.992,281.197 384.326,284.864 383.5,288.5C 368.833,274.167 354.167,259.833 339.5,245.5C 338.818,240.107 337.818,234.773 336.5,229.5 Z"/></g>
<g><path style="opacity:0.989" fill="#ff7900" d="M -0.5,235.5 C 14.7985,250.298 29.9652,265.298 45,280.5C 45.3826,279.944 45.8826,279.611 46.5,279.5C 46.5,283.5 46.5,287.5 46.5,291.5C 45.8826,291.611 45.3826,291.944 45,292.5C 29.9652,277.298 14.7985,262.298 -0.5,247.5C -0.5,243.5 -0.5,239.5 -0.5,235.5 Z"/></g>
<g><path style="opacity:0.987" fill="#ea0060" d="M 511.5,281.5 C 511.5,286.167 511.5,290.833 511.5,295.5C 496.201,280.702 481.035,265.702 466,250.5C 465.722,251.416 465.222,252.082 464.5,252.5C 464.5,247.833 464.5,243.167 464.5,238.5C 465.222,238.082 465.722,237.416 466,236.5C 481.035,251.702 496.201,266.702 511.5,281.5 Z"/></g>
<g><path style="opacity:0.974" fill="#ff3f00" d="M 126.5,229.5 C 141.448,246.116 157.115,262.116 173.5,277.5C 183.366,308.7 204.033,328.7 235.5,337.5C 235.389,338.117 235.056,338.617 234.5,339C 250.035,354.368 265.368,369.868 280.5,385.5C 274.158,386.101 267.824,386.768 261.5,387.5C 215.527,341.86 169.527,296.194 123.5,250.5C 123.854,243.273 124.854,236.273 126.5,229.5 Z"/></g>
<g><path style="opacity:0.984" fill="#fe0028" d="M 339.5,245.5 C 354.167,259.833 368.833,274.167 383.5,288.5C 382.654,291.548 381.654,294.548 380.5,297.5C 379.761,297.631 379.094,297.464 378.5,297C 365.965,284.298 353.298,271.798 340.5,259.5C 340.647,254.786 340.314,250.119 339.5,245.5 Z"/></g>
<g><path style="opacity:0.982" fill="#ff7f00" d="M -0.5,247.5 C 14.7985,262.298 29.9652,277.298 45,292.5C 45.3826,291.944 45.8826,291.611 46.5,291.5C 46.5,296.833 46.5,302.167 46.5,307.5C 30.8333,292.167 15.1667,276.833 -0.5,261.5C -0.5,256.833 -0.5,252.167 -0.5,247.5 Z"/></g>
<g><path style="opacity:0.991" fill="#ff4700" d="M 123.5,250.5 C 169.527,296.194 215.527,341.86 261.5,387.5C 257.167,387.5 252.833,387.5 248.5,387.5C 207.167,345.5 165.5,303.833 123.5,262.5C 123.5,258.5 123.5,254.5 123.5,250.5 Z"/></g>
<g><path style="opacity:0.99" fill="#eb005a" d="M 511.5,295.5 C 511.5,300.167 511.5,304.833 511.5,309.5C 496.201,294.702 481.035,279.702 466,264.5C 465.617,265.056 465.117,265.389 464.5,265.5C 464.5,261.167 464.5,256.833 464.5,252.5C 465.222,252.082 465.722,251.416 466,250.5C 481.035,265.702 496.201,280.702 511.5,295.5 Z"/></g>
<g><path style="opacity:0.984" fill="#fe0022" d="M 340.5,259.5 C 353.298,271.798 365.965,284.298 378.5,297C 379.094,297.464 379.761,297.631 380.5,297.5C 379.679,301.127 378.346,304.46 376.5,307.5C 363.833,295.5 351.5,283.167 339.5,270.5C 339.423,266.785 339.756,263.119 340.5,259.5 Z"/></g>
<g><path style="opacity:0.984" fill="#ff8600" d="M -0.5,261.5 C 15.1667,276.833 30.8333,292.167 46.5,307.5C 46.5,311.833 46.5,316.167 46.5,320.5C 31.1937,304.527 15.527,288.86 -0.5,273.5C -0.5,269.5 -0.5,265.5 -0.5,261.5 Z"/></g>
<g><path style="opacity:0.992" fill="#ff4e00" d="M 123.5,262.5 C 165.5,303.833 207.167,345.5 248.5,387.5C 243.467,386.978 238.467,386.311 233.5,385.5C 198.117,349.117 162.117,313.45 125.5,278.5C 124.761,273.18 124.094,267.846 123.5,262.5 Z"/></g>
<g><path style="opacity:0.98" fill="#ed0054" d="M 511.5,309.5 C 511.5,314.167 511.5,318.833 511.5,323.5C 495.833,308.167 480.167,292.833 464.5,277.5C 464.5,273.5 464.5,269.5 464.5,265.5C 465.117,265.389 465.617,265.056 466,264.5C 481.035,279.702 496.201,294.702 511.5,309.5 Z"/></g>
<g><path style="opacity:0.981" fill="#fe001c" d="M 339.5,270.5 C 351.5,283.167 363.833,295.5 376.5,307.5C 375.341,311.151 373.674,314.485 371.5,317.5C 370.761,317.631 370.094,317.464 369.5,317C 358.298,305.631 346.965,294.465 335.5,283.5C 336.698,279.02 338.031,274.687 339.5,270.5 Z"/></g>
<g><path style="opacity:0.991" fill="#ff8c00" d="M -0.5,273.5 C 15.527,288.86 31.1937,304.527 46.5,320.5C 46.5,324.167 46.5,327.833 46.5,331.5C 30.8333,316.167 15.1667,300.833 -0.5,285.5C -0.5,281.5 -0.5,277.5 -0.5,273.5 Z"/></g>
<g><path style="opacity:0.989" fill="#ff5600" d="M 125.5,278.5 C 162.117,313.45 198.117,349.117 233.5,385.5C 221.989,383.773 210.989,380.44 200.5,375.5C 179.551,352.884 157.884,330.884 135.5,309.5C 130.594,299.779 127.261,289.446 125.5,278.5 Z"/></g>
<g><path style="opacity:0.978" fill="#ee004d" d="M 464.5,277.5 C 480.167,292.833 495.833,308.167 511.5,323.5C 511.5,328.833 511.5,334.167 511.5,339.5C 495.473,324.14 479.806,308.473 464.5,292.5C 464.5,287.5 464.5,282.5 464.5,277.5 Z"/></g>
<g><path style="opacity:0.994" fill="#ff9200" d="M -0.5,285.5 C 15.1667,300.833 30.8333,316.167 46.5,331.5C 46.5,335.5 46.5,339.5 46.5,343.5C 30.8333,328.167 15.1667,312.833 -0.5,297.5C -0.5,293.5 -0.5,289.5 -0.5,285.5 Z"/></g>
<g><path style="opacity:0.983" fill="#fe0011" d="M 335.5,283.5 C 346.965,294.465 358.298,305.631 369.5,317C 370.094,317.464 370.761,317.631 371.5,317.5C 369.165,323.514 365.831,328.848 361.5,333.5C 350.167,322.5 338.833,311.5 327.5,300.5C 330.44,294.954 333.106,289.287 335.5,283.5 Z"/></g>
<g><path style="opacity:0.976" fill="#ef0047" d="M 464.5,292.5 C 479.806,308.473 495.473,324.14 511.5,339.5C 511.5,342.5 511.5,345.5 511.5,348.5C 510.566,349.568 510.232,350.901 510.5,352.5C 495.701,338.202 481.035,323.702 466.5,309C 465.906,308.536 465.239,308.369 464.5,308.5C 464.5,303.167 464.5,297.833 464.5,292.5 Z"/></g>
<g><path style="opacity:0.984" fill="#ff9900" d="M -0.5,297.5 C 15.1667,312.833 30.8333,328.167 46.5,343.5C 47.4454,348.405 47.7787,353.405 47.5,358.5C 31.5,342.833 15.5,327.167 -0.5,311.5C -0.5,306.833 -0.5,302.167 -0.5,297.5 Z"/></g>
<g><path style="opacity:0.977" fill="#ff0103" d="M 327.5,300.5 C 338.833,311.5 350.167,322.5 361.5,333.5C 356.582,341.087 350.582,347.754 343.5,353.5C 332.194,342.86 321.194,331.86 310.5,320.5C 316.946,314.396 322.613,307.729 327.5,300.5 Z"/></g>
<g><path style="opacity:0.981" fill="#f10041" d="M 464.5,308.5 C 465.239,308.369 465.906,308.536 466.5,309C 481.035,323.702 495.701,338.202 510.5,352.5C 510.5,356.167 510.5,359.833 510.5,363.5C 509.778,363.918 509.278,364.584 509,365.5C 494.581,350.578 479.748,336.245 464.5,322.5C 464.5,317.833 464.5,313.167 464.5,308.5 Z"/></g>
<g><path style="opacity:0.953" fill="#ff6000" d="M 135.5,309.5 C 157.884,330.884 179.551,352.884 200.5,375.5C 170.754,361.421 149.087,339.421 135.5,309.5 Z"/></g>
<g><path style="opacity:0.991" fill="#ff9f00" d="M -0.5,311.5 C 15.5,327.167 31.5,342.833 47.5,358.5C 47.9981,363.152 48.3314,367.819 48.5,372.5C 32.527,355.86 16.1937,339.527 -0.5,323.5C -0.5,319.5 -0.5,315.5 -0.5,311.5 Z"/></g>
<g><path style="opacity:0.982" fill="#f2003b" d="M 464.5,322.5 C 479.748,336.245 494.581,350.578 509,365.5C 509.278,364.584 509.778,363.918 510.5,363.5C 509.873,368.141 509.54,372.807 509.5,377.5C 493.858,363.525 478.858,348.858 464.5,333.5C 464.5,329.833 464.5,326.167 464.5,322.5 Z"/></g>
<g><path style="opacity:0.986" fill="#ffa500" d="M -0.5,323.5 C 16.1937,339.527 32.527,355.86 48.5,372.5C 49.2596,377.15 49.9262,381.817 50.5,386.5C 33.8604,369.194 16.8604,352.194 -0.5,335.5C -0.5,331.5 -0.5,327.5 -0.5,323.5 Z"/></g>
<g><path style="opacity:0.984" fill="#ff1600" d="M 310.5,320.5 C 321.194,331.86 332.194,342.86 343.5,353.5C 333.114,363.526 321.114,371.193 307.5,376.5C 295.869,364.368 284.035,352.368 272,340.5C 271.536,339.906 271.369,339.239 271.5,338.5C 285.924,335.453 298.924,329.453 310.5,320.5 Z"/></g>
<g><path style="opacity:0.981" fill="#ffab00" d="M -0.5,335.5 C 16.8604,352.194 33.8604,369.194 50.5,386.5C 51.698,390.767 52.698,395.1 53.5,399.5C 53.5654,399.938 53.3988,400.272 53,400.5C 35.6319,382.965 18.1319,365.632 0.5,348.5C 0.166667,348.5 -0.166667,348.5 -0.5,348.5C -0.5,344.167 -0.5,339.833 -0.5,335.5 Z"/></g>
<g><path style="opacity:0.993" fill="#f30034" d="M 464.5,333.5 C 478.858,348.858 493.858,363.525 509.5,377.5C 508.818,383.009 507.818,388.342 506.5,393.5C 493.255,378.752 479.422,364.419 465,350.5C 464.79,348.942 464.29,347.609 463.5,346.5C 464.295,342.215 464.628,337.881 464.5,333.5 Z"/></g>
<g><path style="opacity:0.988" fill="#ff2f00" d="M 235.5,337.5 C 247.419,340.971 259.419,341.304 271.5,338.5C 271.369,339.239 271.536,339.906 272,340.5C 284.035,352.368 295.869,364.368 307.5,376.5C 298.906,380.476 289.906,383.476 280.5,385.5C 265.368,369.868 250.035,354.368 234.5,339C 235.056,338.617 235.389,338.117 235.5,337.5 Z"/></g>
<g><path style="opacity:0.98" fill="#ffb200" d="M 0.5,348.5 C 18.1319,365.632 35.6319,382.965 53,400.5C 53.3988,400.272 53.5654,399.938 53.5,399.5C 57.1749,409.85 62.1749,419.516 68.5,428.5C 45.4732,407.144 22.8066,384.811 0.5,361.5C 0.5,357.167 0.5,352.833 0.5,348.5 Z"/></g>
<g><path style="opacity:0.982" fill="#f5002e" d="M 463.5,346.5 C 464.29,347.609 464.79,348.942 465,350.5C 479.422,364.419 493.255,378.752 506.5,393.5C 506.46,396.988 505.793,400.321 504.5,403.5C 490.833,390.167 477.167,376.833 463.5,363.5C 463.5,357.833 463.5,352.167 463.5,346.5 Z"/></g>
<g><path style="opacity:0.994" fill="#ffb800" d="M 0.5,361.5 C 22.8066,384.811 45.4732,407.144 68.5,428.5C 72.5,431.833 76.1667,435.5 79.5,439.5C 79.0618,439.435 78.7284,439.601 78.5,440C 102.035,463.368 125.368,486.868 148.5,510.5C 144.176,510.073 139.842,509.739 135.5,509.5C 90.8062,464.473 46.1395,419.473 1.5,374.5C 1.07281,370.176 0.739476,365.842 0.5,361.5 Z"/></g>
<g><path style="opacity:0.985" fill="#f60028" d="M 463.5,363.5 C 477.167,376.833 490.833,390.167 504.5,403.5C 503.964,407.314 502.964,410.981 501.5,414.5C 488.702,402.202 476.035,389.702 463.5,377C 462.906,376.536 462.239,376.369 461.5,376.5C 462.167,372.167 462.833,367.833 463.5,363.5 Z"/></g>
<g><path style="opacity:0.992" fill="#ffbe00" d="M 1.5,374.5 C 46.1395,419.473 90.8062,464.473 135.5,509.5C 129.291,508.979 123.291,507.979 117.5,506.5C 118.552,506.649 119.552,506.483 120.5,506C 81.632,466.965 42.632,428.132 3.5,389.5C 2.58907,384.547 1.9224,379.547 1.5,374.5 Z"/></g>
<g><path style="opacity:0.984" fill="#f80020" d="M 461.5,376.5 C 462.239,376.369 462.906,376.536 463.5,377C 476.035,389.702 488.702,402.202 501.5,414.5C 499.719,420.727 497.385,426.727 494.5,432.5C 482.167,421.167 469.833,409.833 457.5,398.5C 459.47,391.285 460.804,383.952 461.5,376.5 Z"/></g>
<g><path style="opacity:0.99" fill="#ffc400" d="M 3.5,389.5 C 42.632,428.132 81.632,466.965 120.5,506C 119.552,506.483 118.552,506.649 117.5,506.5C 114.012,506.46 110.679,505.793 107.5,504.5C 73.8602,471.194 40.1936,437.861 6.5,404.5C 5.11684,399.584 4.11684,394.584 3.5,389.5 Z"/></g>
<g><path style="opacity:0.986" fill="#fa0016" d="M 457.5,398.5 C 469.833,409.833 482.167,421.167 494.5,432.5C 492.656,436.864 490.323,440.864 487.5,444.5C 475.446,433.448 464.113,421.781 453.5,409.5C 454.558,405.721 455.891,402.054 457.5,398.5 Z"/></g>
<g><path style="opacity:0.982" fill="#ffca00" d="M 6.5,404.5 C 40.1936,437.861 73.8602,471.194 107.5,504.5C 99.8949,502.965 92.5615,500.631 85.5,497.5C 62.1166,473.116 38.1166,449.449 13.5,426.5C 10.7669,419.301 8.43359,411.967 6.5,404.5 Z"/></g>
<g><path style="opacity:0.984" fill="#fc000b" d="M 453.5,409.5 C 464.113,421.781 475.446,433.448 487.5,444.5C 484.27,450.727 480.27,456.393 475.5,461.5C 465.202,450.702 454.702,440.035 444,429.5C 443.517,428.552 443.351,427.552 443.5,426.5C 447.114,420.93 450.447,415.263 453.5,409.5 Z"/></g>
<g><path style="opacity:0.969" fill="#ffd100" d="M 13.5,426.5 C 38.1166,449.449 62.1166,473.116 85.5,497.5C 62.8427,488.362 44.0094,474.028 29,454.5C 23.0457,445.59 17.8791,436.257 13.5,426.5 Z"/></g>
<g><path style="opacity:0.981" fill="#ffb200" d="M 79.5,439.5 C 88.5132,446.833 98.5132,452.499 109.5,456.5C 127.167,474.5 144.833,492.5 162.5,510.5C 157.833,510.5 153.167,510.5 148.5,510.5C 125.368,486.868 102.035,463.368 78.5,440C 78.7284,439.601 79.0618,439.435 79.5,439.5 Z"/></g>
<g><path style="opacity:0.984" fill="#fe1200" d="M 443.5,426.5 C 443.351,427.552 443.517,428.552 444,429.5C 454.702,440.035 465.202,450.702 475.5,461.5C 461.794,478.184 444.794,490.184 424.5,497.5C 412.554,484.887 400.221,472.554 387.5,460.5C 410.204,455.815 428.871,444.481 443.5,426.5 Z"/></g>
<g><path style="opacity:0.979" fill="#ffab00" d="M 109.5,456.5 C 114.833,457.833 120.167,459.167 125.5,460.5C 142.167,477.5 158.833,494.5 175.5,511.5C 171.5,511.5 167.5,511.5 163.5,511.5C 163.5,510.833 163.167,510.5 162.5,510.5C 144.833,492.5 127.167,474.5 109.5,456.5 Z"/></g>
<g><path style="opacity:0.986" fill="#ffa500" d="M 125.5,460.5 C 129.833,461.167 134.167,461.833 138.5,462.5C 155.14,478.473 171.473,494.806 187.5,511.5C 183.5,511.5 179.5,511.5 175.5,511.5C 158.833,494.5 142.167,477.5 125.5,460.5 Z"/></g>
<g><path style="opacity:0.989" fill="#ff9f00" d="M 138.5,462.5 C 143.181,462.669 147.848,463.002 152.5,463.5C 168.167,479.5 183.833,495.5 199.5,511.5C 195.5,511.5 191.5,511.5 187.5,511.5C 171.473,494.806 155.14,478.473 138.5,462.5 Z"/></g>
<g><path style="opacity:0.983" fill="#ff3200" d="M 387.5,460.5 C 400.221,472.554 412.554,484.887 424.5,497.5C 415.063,502.031 405.063,505.031 394.5,506.5C 381.256,492.755 367.756,479.089 354,465.5C 353.536,464.906 353.369,464.239 353.5,463.5C 364.891,463.101 376.224,462.101 387.5,460.5 Z"/></g>
<g><path style="opacity:0.984" fill="#ff9900" d="M 152.5,463.5 C 157.595,463.221 162.595,463.555 167.5,464.5C 182.833,480.167 198.167,495.833 213.5,511.5C 208.833,511.5 204.167,511.5 199.5,511.5C 183.833,495.5 168.167,479.5 152.5,463.5 Z"/></g>
<g><path style="opacity:0.994" fill="#ff9200" d="M 167.5,464.5 C 171.5,464.5 175.5,464.5 179.5,464.5C 194.833,480.167 210.167,495.833 225.5,511.5C 221.5,511.5 217.5,511.5 213.5,511.5C 198.167,495.833 182.833,480.167 167.5,464.5 Z"/></g>
<g><path style="opacity:0.987" fill="#ff8c00" d="M 179.5,464.5 C 183.833,464.5 188.167,464.5 192.5,464.5C 192.369,465.239 192.536,465.906 193,466.5C 208.035,481.368 222.869,496.368 237.5,511.5C 233.5,511.5 229.5,511.5 225.5,511.5C 210.167,495.833 194.833,480.167 179.5,464.5 Z"/></g>
<g><path style="opacity:0.989" fill="#ff8600" d="M 192.5,464.5 C 195.5,464.5 198.5,464.5 201.5,464.5C 218.085,479.417 234.085,495.084 249.5,511.5C 245.5,511.5 241.5,511.5 237.5,511.5C 222.869,496.368 208.035,481.368 193,466.5C 192.536,465.906 192.369,465.239 192.5,464.5 Z"/></g>
<g><path style="opacity:0.977" fill="#ff7f00" d="M 201.5,464.5 C 208.167,464.5 214.833,464.5 221.5,464.5C 220.737,465.268 219.737,465.768 218.5,466C 233.702,481.035 248.702,496.201 263.5,511.5C 258.833,511.5 254.167,511.5 249.5,511.5C 234.085,495.084 218.085,479.417 201.5,464.5 Z"/></g>
<g><path style="opacity:0.982" fill="#ff7900" d="M 221.5,464.5 C 225.5,464.5 229.5,464.5 233.5,464.5C 232.737,465.268 231.737,465.768 230.5,466C 245.702,481.035 260.702,496.201 275.5,511.5C 271.5,511.5 267.5,511.5 263.5,511.5C 248.702,496.201 233.702,481.035 218.5,466C 219.737,465.768 220.737,465.268 221.5,464.5 Z"/></g>
<g><path style="opacity:0.974" fill="#ff7300" d="M 233.5,464.5 C 238.833,464.5 244.167,464.5 249.5,464.5C 249.5,464.833 249.5,465.167 249.5,465.5C 247.143,465.337 244.81,465.503 242.5,466C 257.782,481.786 273.449,496.952 289.5,511.5C 284.833,511.5 280.167,511.5 275.5,511.5C 260.702,496.201 245.702,481.035 230.5,466C 231.737,465.768 232.737,465.268 233.5,464.5 Z"/></g>
<g><path style="opacity:0.978" fill="#ff6700" d="M 249.5,465.5 C 249.5,465.167 249.5,464.833 249.5,464.5C 254.167,464.5 258.833,464.5 263.5,464.5C 264.952,465.302 266.618,465.802 268.5,466C 283.702,481.035 298.702,496.201 313.5,511.5C 308.833,511.5 304.167,511.5 299.5,511.5C 284.702,496.201 269.702,481.035 254.5,466C 252.866,465.506 251.199,465.34 249.5,465.5 Z"/></g>
<g><path style="opacity:0.97" fill="#ff6000" d="M 263.5,464.5 C 268.833,464.5 274.167,464.5 279.5,464.5C 294.833,480.167 310.167,495.833 325.5,511.5C 321.5,511.5 317.5,511.5 313.5,511.5C 298.702,496.201 283.702,481.035 268.5,466C 266.618,465.802 264.952,465.302 263.5,464.5 Z"/></g>
<g><path style="opacity:0.973" fill="#ff5a00" d="M 279.5,464.5 C 283.5,464.5 287.5,464.5 291.5,464.5C 306.833,480.167 322.167,495.833 337.5,511.5C 333.5,511.5 329.5,511.5 325.5,511.5C 310.167,495.833 294.833,480.167 279.5,464.5 Z"/></g>
<g><path style="opacity:0.97" fill="#ff5400" d="M 291.5,464.5 C 296.167,464.5 300.833,464.5 305.5,464.5C 305.389,465.117 305.056,465.617 304.5,466C 319.395,481.062 334.395,495.896 349.5,510.5C 348.508,510.328 347.842,510.662 347.5,511.5C 344.167,511.5 340.833,511.5 337.5,511.5C 322.167,495.833 306.833,480.167 291.5,464.5 Z"/></g>
<g><path style="opacity:0.984" fill="#ff4900" d="M 305.5,464.5 C 313.5,464.5 321.5,464.5 329.5,464.5C 344.167,479.5 358.833,494.5 373.5,509.5C 365.529,510.323 357.529,510.656 349.5,510.5C 334.395,495.896 319.395,481.062 304.5,466C 305.056,465.617 305.389,465.117 305.5,464.5 Z"/></g>
<g><path style="opacity:0.984" fill="#ff3f00" d="M 353.5,463.5 C 353.369,464.239 353.536,464.906 354,465.5C 367.756,479.089 381.256,492.755 394.5,506.5C 387.621,508.069 380.621,509.069 373.5,509.5C 358.833,494.5 344.167,479.5 329.5,464.5C 337.514,464.432 345.514,464.099 353.5,463.5 Z"/></g>
<g><path style="opacity:0.999" fill="#ff6d00" d="M 249.5,465.5 C 251.199,465.34 252.866,465.506 254.5,466C 269.702,481.035 284.702,496.201 299.5,511.5C 296.167,511.5 292.833,511.5 289.5,511.5C 273.449,496.952 257.782,481.786 242.5,466C 244.81,465.503 247.143,465.337 249.5,465.5 Z"/></g>
</svg>
