<svg width="336" height="227" viewBox="0 0 336 227" fill="none" xmlns="http://www.w3.org/2000/svg">
<g clip-path="url(#clip0_209_1943)">
<path d="M165.247 227C249.212 227 317.28 214.435 317.28 198.935C317.28 183.436 249.212 170.87 165.247 170.87C81.2813 170.87 13.2139 183.436 13.2139 198.935C13.2139 214.435 81.2813 227 165.247 227Z" fill="#DAF1F6"/>
<path d="M52.147 195.004C61.4779 195.004 69.0421 193.971 69.0421 192.697C69.0421 191.423 61.4779 190.39 52.147 190.39C42.8161 190.39 35.252 191.423 35.252 192.697C35.252 193.971 42.8161 195.004 52.147 195.004Z" fill="#D2F0FF"/>
<path d="M28.5908 94.8306C36.4797 124.815 41.9145 155.605 44.3194 186.534L44.7587 192.735L43.9558 192.78L43.5657 186.591C41.4146 155.665 36.2336 124.865 28.5908 94.8344V94.8306Z" fill="#55C7A6"/>
<path d="M47.0307 192.321C41.5732 158.231 37.8958 111.394 51.7875 79.1969C52.9389 76.6507 54.2341 74.1425 55.9497 71.8657L56.1467 72.5867C58.669 82.4033 60.1082 94.8572 56.0444 104.401C53.5372 110.043 49.4167 117.503 43.6676 120.258C47.8677 110.654 51.2649 100.629 53.1547 90.2998C51.9807 97.8511 49.928 105.247 47.4321 112.464C46.5914 114.874 45.7051 117.257 44.728 119.624L44.2433 119.15C47.8601 116.987 50.3673 113.36 52.5222 109.808C54.609 106.135 56.4762 102.26 57.192 98.056C58.3206 91.7721 57.8699 85.291 56.817 79.0223C56.4535 76.9277 56.0103 74.8293 55.4536 72.7916L56.0823 72.9168C53.204 77.0378 51.3368 81.8303 49.6969 86.566C45.7241 98.6024 43.9971 111.307 43.2396 123.935C42.5579 136.609 42.8988 149.328 43.9744 161.976C44.8303 172.096 46.1255 182.178 47.7389 192.211L47.0269 192.329L47.0307 192.321Z" fill="#55C7A6"/>
<path d="M72.2922 137.892C72.2922 137.892 77.2005 154.269 58.2148 159.593C58.2148 159.593 59.0367 145.853 72.2922 137.892Z" fill="#96DBBF"/>
<path d="M2.11738 97.741C11.8886 89.8558 33.7336 105.19 44.7432 112.84C55.7529 120.49 52.2421 137.573 52.2421 137.573C44.5387 127.077 36.6347 125.134 20.2509 124.204C3.86711 123.275 -4.12027 102.776 2.11738 97.7448V97.741Z" fill="#96DBBF"/>
<path d="M10.2412 106.582C10.2412 106.582 17.7135 116.494 32.3135 118.084C46.9135 119.674 52.7875 135.6 52.8254 140.627C52.8254 140.627 57.889 167.034 51.0719 192.264" stroke="#55C7A6" stroke-width="2.12" stroke-miterlimit="10" stroke-linecap="round"/>
<path d="M65.3421 146.483C65.3421 146.483 56.8056 160.34 54.5029 169.083" stroke="#55C7A6" stroke-width="2.12" stroke-miterlimit="10" stroke-linecap="round"/>
<path d="M40.9141 192.648C40.7172 175.625 36.3164 157.726 25.0833 144.57C21.3339 140.244 16.793 136.617 11.7331 133.957L12.2444 133.661C12.2331 138.95 13.2821 144.547 16.2665 148.995C19.3569 153.67 24.6667 155.601 30.1128 155.165L29.8363 155.696C29.0448 154.364 28.1813 153.051 27.2913 151.765C24.6023 147.921 21.6217 144.236 18.0011 141.227C23.1215 145.227 27.2042 150.406 30.7453 155.825C20.8756 156.755 14.6683 151.176 12.4603 141.815C11.7786 138.958 11.4718 136.028 11.5514 133.076L12.0551 133.342C22.4284 138.707 30.1886 148.198 34.7712 158.83C39.3614 169.474 41.5656 181.093 41.611 192.674L40.9141 192.655V192.648Z" fill="#55C7A6"/>
<path d="M61.1383 138.347C61.1042 138.328 61.0815 138.377 61.0625 138.404C61.0436 138.434 61.0322 138.468 61.0171 138.499C60.6535 139.508 60.4641 140.571 60.2369 141.618C59.5628 144.984 59.0666 148.384 58.6765 151.795C57.4987 163.084 57.0215 174.775 60.0778 185.802C60.7179 187.976 61.5397 190.101 62.6305 192.075L61.926 192.458C60.8315 190.405 60.0248 188.219 59.4037 185.996C56.4837 174.843 57.1275 163.107 58.4796 151.772C58.9227 148.365 59.4681 144.969 60.1914 141.61C60.4338 140.567 60.6421 139.504 61.0171 138.499C61.0322 138.465 61.0474 138.434 61.0663 138.404C61.0852 138.381 61.108 138.328 61.1421 138.351L61.1383 138.347Z" fill="#55C7A6"/>
<path d="M287.357 185.244C296.688 185.244 304.252 184.211 304.252 182.937C304.252 181.663 296.688 180.63 287.357 180.63C278.026 180.63 270.462 181.663 270.462 182.937C270.462 184.211 278.026 185.244 287.357 185.244Z" fill="#D2F0FF"/>
<path d="M307.41 84.6838C299.767 114.71 294.583 145.515 292.435 176.441L292.045 182.63L291.242 182.584L291.682 176.384C294.083 145.454 299.517 114.665 307.41 84.6801V84.6838Z" fill="#55C7A6"/>
<path d="M263.705 127.745C263.705 127.745 258.797 144.122 277.782 149.446C277.782 149.446 276.96 135.706 263.705 127.745Z" fill="#55C7A6"/>
<path d="M333.884 87.5942C324.112 79.7091 302.267 95.043 291.258 102.693C280.248 110.343 283.759 127.426 283.759 127.426C291.462 116.93 299.366 114.987 315.75 114.058C332.134 113.128 340.121 92.6297 333.884 87.598V87.5942Z" fill="#96DBBF"/>
<path d="M325.755 96.4319C325.755 96.4319 318.283 106.343 303.683 107.933C289.083 109.523 283.209 125.449 283.171 130.477C283.171 130.477 278.108 156.884 284.929 182.114" stroke="#55C7A6" stroke-width="2.12" stroke-miterlimit="10" stroke-linecap="round"/>
<path d="M316.571 125.388C316.571 125.388 301.115 132.196 289.337 155.18C289.337 155.18 297.374 157.9 307.209 148.008C317.045 138.112 316.567 125.392 316.567 125.392L316.571 125.388Z" fill="#55C7A6"/>
<path d="M308.618 134.636C308.618 134.636 286.228 154.861 282.13 167.11" stroke="#55C7A6" stroke-width="2.12" stroke-miterlimit="10"/>
<path d="M270.654 136.336C270.654 136.336 279.191 150.194 281.493 158.936" stroke="#55C7A6" stroke-width="2.12" stroke-miterlimit="10"/>
<path d="M296.48 182.023C300.48 165.687 307.702 148.828 321.863 138.878L322.484 138.446C322.56 141.967 322.314 145.469 321.761 148.934C320.189 159.035 315.262 169.96 303.248 168.54C304.953 164.951 306.93 161.513 309.062 158.166C311.111 155.009 313.334 151.935 315.985 149.256C312.183 153.427 309.289 158.325 306.672 163.3C305.809 164.962 304.979 166.655 304.222 168.355L303.892 167.785C310.929 168.472 315.796 164.268 318.413 158.033C320.889 152.144 321.704 145.579 321.696 139.223L322.325 139.542C315.398 144.354 310.035 151.135 306.04 158.523C302.021 165.953 299.257 174.016 297.264 182.216L296.484 182.026L296.48 182.023Z" fill="#55C7A6"/>
<path d="M274.862 128.2C274.897 128.177 274.923 128.231 274.938 128.253C274.957 128.284 274.972 128.318 274.987 128.348C275.366 129.354 275.571 130.416 275.813 131.46C276.536 134.818 277.082 138.214 277.525 141.622C278.877 152.956 279.521 164.693 276.601 175.845C275.98 178.069 275.173 180.254 274.078 182.307L273.374 181.924C274.465 179.951 275.283 177.83 275.923 175.652C278.979 164.624 278.502 152.933 277.324 141.644C276.93 138.237 276.438 134.833 275.764 131.467C275.537 130.42 275.347 129.358 274.984 128.348C274.968 128.314 274.953 128.284 274.938 128.253C274.919 128.231 274.9 128.177 274.862 128.196V128.2Z" fill="#55C7A6"/>
<path d="M285.345 182.994H285.353V182.937H90.5651C90.5651 182.937 54.817 207.815 51.3819 210.258C49.3898 211.677 52.1886 214.933 55.0594 214.933H238.053C240.701 214.933 243.283 214.133 245.469 212.638L283.732 186.44C284.993 185.574 285.47 184.254 285.349 182.994H285.345Z" fill="#D2F0FF"/>
<path d="M278.967 181.753H278.974V168.818H94.7497L56.502 194.879V207.644H56.5323C56.7216 209.879 58.4562 211.962 61.1679 211.962H234.239C236.742 211.962 239.185 211.207 241.249 209.792L277.437 185.013C278.63 184.197 279.08 182.945 278.967 181.757V181.753Z" fill="#D1E28A"/>
<path d="M278.968 181.753H278.975V168.818H241.379V209.701L277.438 185.013C278.631 184.197 279.081 182.945 278.968 181.757V181.753Z" fill="#D1E28A"/>
<g style="mix-blend-mode:overlay" opacity="0.5">
<path d="M61.1679 202.077H234.239C236.742 202.077 239.185 201.322 241.249 199.907L277.437 175.128C278.444 174.437 278.918 173.436 278.974 172.426V172.066C278.974 172.001 278.974 171.937 278.967 171.872H278.974V168.818H94.7497L56.502 194.879V197.763H56.5323C56.7216 199.998 58.4562 202.081 61.1679 202.081V202.077Z" fill="white"/>
</g>
<path d="M234.239 199.026H61.1681C56.5893 199.026 54.76 193.095 58.5397 190.507L91.7845 167.744C93.8485 166.328 96.2951 165.573 98.7947 165.573H275.426C278.922 165.573 280.319 170.1 277.433 172.077L241.246 196.856C239.182 198.271 236.735 199.026 234.235 199.026H234.239Z" fill="#D1E28A"/>
<path d="M268.242 165.577H113.065L69.0459 199.026H219.954L268.242 165.577Z" fill="#26CE7B"/>
<path d="M268.241 165.577H185.466L96.3252 199.026H219.953L268.241 165.577Z" fill="#8AE2B7"/>
<path d="M243.9 189.756C243.609 189.756 243.325 189.62 243.147 189.361C242.855 188.944 242.961 188.371 243.374 188.083L261.689 175.306C262.106 175.014 262.678 175.117 262.965 175.534C263.257 175.951 263.151 176.524 262.738 176.813L244.423 189.589C244.264 189.699 244.078 189.752 243.9 189.752V189.756Z" fill="#26CE7B"/>
<path d="M210.459 208.699H188.372C187.732 208.699 187.213 208.179 187.213 207.538C187.213 206.896 187.732 206.376 188.372 206.376H210.459C211.099 206.376 211.618 206.896 211.618 207.538C211.618 208.179 211.099 208.699 210.459 208.699Z" fill="#05CDFF"/>
<path d="M210.459 207.534H188.372C187.732 207.534 187.213 207.014 187.213 206.373C187.213 205.731 187.732 205.212 188.372 205.212H210.459C211.099 205.212 211.618 205.731 211.618 206.373C211.618 207.014 211.099 207.534 210.459 207.534Z" fill="white"/>
<path d="M181.331 172.954C181.331 174.806 171.95 176.308 160.38 176.308C148.81 176.308 139.429 174.806 139.429 172.954C139.429 171.102 148.81 169.599 160.38 169.599C171.95 169.599 181.331 171.102 181.331 172.954Z" fill="#26CE7B"/>
<path d="M245.544 186.06C245.544 187.745 238.735 189.107 230.331 189.107C221.927 189.107 215.117 187.741 215.117 186.06C215.117 184.379 221.927 183.013 230.331 183.013C238.735 183.013 245.544 184.379 245.544 186.06Z" fill="#26CE7B"/>
<path d="M69.0459 199.026V211.958" stroke="#41378C" stroke-miterlimit="10"/>
<path d="M219.829 199.026V211.958" stroke="#41378C" stroke-miterlimit="10"/>
<path d="M250.809 42.0403C238.357 38.9932 228.722 28.4139 219.95 18.4683C209.414 6.52292 193.265 -0.147972 176.029 1.99597C171.632 2.54239 167.432 3.63144 163.478 5.18343C152.378 9.54721 140.198 9.0615 129.264 4.24616C121.208 0.698222 112.077 -0.777874 102.62 0.398449C74.7195 3.8705 54.5409 29.1311 57.5442 56.8202C59.7711 77.3452 74.1136 93.4418 92.7508 98.9819C103.768 102.257 113.141 109.99 119.281 120.319C129.075 136.795 148.064 146.752 168.599 144.198C175.969 143.28 182.797 140.844 188.804 137.243C198.889 131.194 210.702 129.297 221.897 132.39C228.138 134.112 234.808 134.34 241.708 133.805C279.32 130.894 295.378 52.9459 250.809 42.0403Z" fill="#DAF1F7"/>
<path d="M162.383 170.225C162.989 172.153 161.645 172.491 159.251 173.098C156.858 173.705 155.263 173.827 155.108 173.208C154.964 172.631 155.612 171.796 157.68 170.453C160.168 168.84 161.99 168.973 162.383 170.229V170.225Z" fill="#823264"/>
<path d="M161.951 166.92L161.467 170.062C161.433 170.578 161.005 170.977 160.49 170.977C159.971 170.977 159.543 170.571 159.512 170.051L159.13 166.04L161.948 166.92H161.951Z" fill="#FFB49B"/>
<path d="M175.199 170.673C174.73 172.639 176.093 172.882 178.521 173.318C180.948 173.754 182.755 173.72 182.869 173.094C182.975 172.51 182.066 171.766 179.907 170.571C177.313 169.136 175.506 169.394 175.199 170.673Z" fill="#823264"/>
<path d="M175.761 167.338L176.158 170.495C176.177 171.011 176.594 171.425 177.109 171.436C177.628 171.451 178.067 171.056 178.109 170.537L178.601 166.537L175.757 167.338H175.761Z" fill="#FFB49B"/>
<path d="M173.435 49.9104C169.863 49.1325 166.337 51.4055 165.561 54.9838C165.478 55.3746 165.436 55.7617 165.421 56.1487C164.803 56.4333 164.447 56.8166 164.258 57.2681C161.293 59.5562 159.664 63.404 160.376 67.2631C160.497 67.9309 160.683 68.5722 160.925 69.1755C161.652 71.0197 161.812 73.0688 161.107 74.9205C160.304 77.0379 160.187 79.4475 160.978 81.8267C162.463 86.2967 166.939 89.2072 171.617 88.7518C177.794 88.1485 181.911 82.3541 180.668 76.4422C180.506 75.6643 180.252 74.9243 179.93 74.2337C180.949 72.8867 181.706 71.3119 182.089 69.5512C182.895 65.8249 181.873 62.1328 179.627 59.4007C178.945 58.5734 178.638 57.5261 178.654 56.4523C178.695 53.3331 176.525 50.5783 173.442 49.9066L173.435 49.9104Z" fill="#FF640A"/>
<path d="M169.477 93.6278L164.902 94.4816C155.934 100.056 155.934 113.606 155.934 113.606L159.134 166.04C160.259 166.446 160.717 167.273 161.952 166.92C163.864 155.419 167.152 133.228 169.477 117.268V93.6316V93.6278Z" fill="#FFB49B"/>
<path d="M182.069 106.085C180.812 97.6425 176.907 93.2597 176.907 93.2597L172.052 92.8347L169.98 116.543C171.973 134.09 175.752 167.338 175.76 167.342C177.04 167.869 178.6 166.556 178.604 166.541C178.725 165.346 183.312 114.426 182.069 106.085Z" fill="#FFB49B"/>
<path d="M183.766 151.772C183.562 142.718 184.221 106.507 183.52 103.577C181.346 94.4968 174.502 90.0913 174.502 90.0913H168.594L163.163 92.3567C153.35 98.4546 154.903 111.588 154.903 111.588V151.089C165.413 153.415 173.29 154.679 183.766 151.776V151.772Z" fill="#EB5A7D"/>
<path d="M177.82 93.0169C177.82 93.0169 183.24 80.8325 182.035 74.8105C181.293 71.0994 177.169 67.7108 169.98 67.7108C166.871 67.7108 159.588 68.4432 156.229 72.6552C155.377 73.7214 155.475 78.5026 156.062 79.5196C158.603 83.8985 158.566 86.6914 163.163 92.3529C163.163 92.3529 170.677 96.9064 177.82 93.0131V93.0169Z" fill="#FFB206"/>
<path d="M172.473 68.0864C172.473 69.3386 171.462 70.3518 170.212 70.3518C168.962 70.3518 167.951 69.3386 167.951 68.0864V60.6149H172.469V68.0864H172.473Z" fill="#FFA587"/>
<path d="M165.826 59.6738C165.826 60.3264 166.349 60.8539 166.993 60.8539V58.4899C166.349 58.4899 165.826 59.0173 165.826 59.67V59.6738Z" fill="#FFA587"/>
<path d="M174.704 59.6738C174.704 60.3264 174.181 60.8539 173.537 60.8539V58.4899C174.181 58.4899 174.704 59.0173 174.704 59.67V59.6738Z" fill="#FFA587"/>
<path d="M167.955 64.6789C168.114 64.823 168.281 64.9521 168.47 65.0621L169.481 65.6541C170.004 65.9576 170.652 65.9538 171.167 65.6427L172.106 65.0735C172.238 64.9938 172.36 64.9027 172.477 64.8079V59.9546H167.959V64.6827L167.955 64.6789Z" fill="#F5876E"/>
<path d="M172.106 64.4018L171.166 64.971C170.647 65.286 170.004 65.2898 169.481 64.9824L168.47 64.3905C167.508 63.8289 166.917 62.7967 166.917 61.6811V56.4901H173.617V61.7115C173.617 62.8081 173.045 63.8289 172.106 64.398V64.4018Z" fill="#FFA587"/>
<path d="M173.208 47.8044C171.894 47.8423 170.724 48.4494 169.932 49.3943C169.106 50.3809 167.91 50.9463 166.649 51.1967C166.633 51.1967 166.618 51.2043 166.603 51.2043C165.202 51.4965 164.081 52.6387 163.823 54.0464C163.789 54.2324 163.77 54.4183 163.763 54.6005C163.744 55.2038 163.63 55.8071 163.346 56.3384C163.213 56.585 163.138 56.8658 163.138 57.1618C163.138 58.1939 164.028 59.0287 165.126 59.0287C165.58 59.0287 166.001 58.8846 166.334 58.6417C166.641 58.4178 167.012 58.323 167.391 58.3192C168.22 58.3154 168.981 58.0232 169.595 57.5299C170.447 56.8431 171.549 56.4978 172.632 56.6685C172.86 56.7065 173.094 56.7254 173.333 56.7254C175.836 56.7254 177.855 54.6574 177.783 52.134C177.715 49.7737 175.56 47.7398 173.204 47.8044H173.208Z" fill="#FF640A"/>
<path d="M168.708 62.1555C168.708 63.051 169.431 63.772 170.321 63.772C171.211 63.772 171.935 63.0472 171.935 62.1555H168.704H168.708Z" fill="white"/>
<path d="M171.03 95.639H168.209C167.887 95.639 167.614 95.3961 167.58 95.0736L166.743 87.5565C166.702 87.1808 166.997 86.8507 167.372 86.8507H171.814C172.189 86.8507 172.485 87.177 172.447 87.5527L171.663 95.0698C171.629 95.3923 171.356 95.639 171.03 95.639Z" fill="#41378C"/>
<path d="M167.371 87.5527H171.814C172.087 87.5527 172.31 87.7273 172.401 87.9625L172.443 87.5489C172.481 87.1733 172.189 86.8469 171.81 86.8469H167.368C166.989 86.8469 166.694 87.1771 166.739 87.5527L166.784 87.9587C166.875 87.7235 167.099 87.5527 167.371 87.5527Z" fill="#827DDC"/>
<path d="M175.893 90.0799C175.276 90.2393 174.825 90.3569 174.496 90.4442C173.856 90.6112 173.659 90.7136 173.079 90.3873C172.723 90.1862 172.591 88.5659 172.31 88.7974C171.992 89.0554 172.091 89.8485 171.833 91.0096C171.383 91.1424 170.53 91.4346 169.947 91.6737C169.39 91.9013 167.739 92.8006 167.97 93.3585C168.334 94.2236 170.992 94.8042 171.905 94.5993C172.723 94.4134 174.981 92.6413 174.981 92.6413L177.075 91.9962L175.886 90.0837L175.893 90.0799Z" fill="#FFB49B"/>
<path d="M188.22 92.6639C188.209 96.6331 182.596 97.1605 176.991 95.6882C174.177 94.9521 173.836 89.7611 175.279 88.247C177.35 86.0727 180.161 88.0725 180.028 86.8696C179.914 85.8527 177.828 78.0813 176.813 75.0305C175.426 70.864 174.502 70.1241 175.23 69.2741C176.347 67.9687 179.57 70.0823 180.611 71.4484C188.065 81.2005 188.235 89.5676 188.224 92.6602L188.22 92.6639Z" fill="#FFC305"/>
<path d="M163.247 90.3986C163.879 90.4555 164.345 90.4973 164.686 90.5276C165.345 90.5883 166.087 90.5238 166.557 90.0533C166.697 89.9129 166.576 88.6303 166.89 88.8125C167.246 89.0174 167.257 89.6055 167.701 90.7098C168.166 90.7705 168.761 90.8578 169.374 91.002C169.962 91.1386 171.738 91.7571 171.598 92.3414C171.382 93.2521 168.848 94.2615 167.916 94.2084C167.079 94.1591 164.565 92.7778 164.565 92.7778L162.395 92.4818L163.254 90.3986H163.247Z" fill="#FFA587"/>
<path d="M151.472 91.8633C151.484 95.8324 157.096 96.3599 162.702 94.8876C165.516 94.1514 165.856 88.9604 164.414 87.4464C162.342 85.2721 159.532 87.2718 159.664 86.069C159.778 85.052 160.338 77.884 161.1 74.9205C162.194 70.6667 163.107 70.3821 162.384 69.5321C161.266 68.2268 157.653 70.7009 156.612 72.0669C149.158 81.819 151.461 88.7707 151.469 91.8633H151.472Z" fill="#FFC305"/>
<path d="M167.751 22.0675L172.03 26.3552L168.423 29.9695C168.054 30.3398 167.451 30.3424 167.079 29.9695L163.472 26.3552L167.751 22.0675Z" fill="#D72846"/>
<path d="M182.013 4.78125H153.484C152.785 4.78125 152.219 5.34868 152.219 6.04864V25.0899C152.219 25.7899 152.785 26.3573 153.484 26.3573H182.013C182.712 26.3573 183.278 25.7899 183.278 25.0899V6.04864C183.278 5.34868 182.712 4.78125 182.013 4.78125Z" fill="#EB5A7D"/>
<path d="M171.356 11.2017C170.307 11.0044 169.322 11.2966 168.587 11.8885C168.087 12.2945 167.398 12.3021 166.898 11.8961C166.281 11.3952 165.489 11.1068 164.626 11.1448C162.535 11.2358 161.1 13.2887 161.479 15.353C162.054 18.4911 165.762 20.3808 167.186 20.9993C167.538 21.1511 167.936 21.1435 168.281 20.9766C169.811 20.2404 174.045 17.8953 174.075 14.5523C174.09 12.8979 172.977 11.5053 171.356 11.2017Z" fill="white"/>
<path d="M191.667 84.2437L187.122 82.0315C187.122 82.0315 183.937 80.2329 181.74 80.95C179.434 81.7014 175.204 82.2971 175.874 82.9536C176.325 83.3938 182.055 83.481 183.793 83.481C185.531 83.481 190.493 86.3422 190.493 86.3422L191.663 84.2437H191.667Z" fill="#FFA587"/>
<path d="M225.241 81.4926C225.241 81.4926 211.99 86.9113 207.415 86.3079C204.169 85.8792 198.185 82.1035 195.261 80.635C191.349 78.6694 187.444 81.3294 187.016 85.6932C186.584 90.1139 189.902 92.0492 194.754 93.2976C194.754 93.2976 204.987 95.8248 208.422 95.4226C213.16 94.8685 226.097 88.2318 226.097 88.2318C228.055 87.8561 229.271 85.8792 228.726 83.9591C228.286 82.4185 226.839 81.394 225.241 81.4964V81.4926Z" fill="#6E64C3"/>
<path d="M207.919 100.739L208.884 99.9986C208.985 99.9208 209.004 99.7755 208.927 99.6741L202.562 91.3517C202.485 91.2502 202.34 91.231 202.239 91.3088L201.274 92.0496C201.172 92.1274 201.153 92.2726 201.231 92.3741L207.595 100.696C207.673 100.798 207.818 100.817 207.919 100.739Z" fill="#0073AA"/>
<path d="M208.79 100.059L210.252 98.9628C210.407 98.8452 210.434 98.6213 210.316 98.4695L204.101 90.3377C203.984 90.1822 203.76 90.1556 203.609 90.2732L202.147 91.3699C201.992 91.4875 201.965 91.7114 202.083 91.8632L208.298 99.995C208.415 100.151 208.638 100.177 208.79 100.059Z" fill="#41B4E6"/>
<path d="M202.325 92.2047L204.325 90.6337L204.101 90.3415C203.984 90.1859 203.76 90.1594 203.609 90.277L202.147 91.3737C201.992 91.4913 201.965 91.7152 202.083 91.867L202.329 92.2047H202.325Z" fill="#0073AA"/>
<path d="M227.559 73.4177C227.366 73.7782 227.245 74.169 227.203 74.5788C227.07 75.9031 226.048 77.0149 224.669 77.1971C223.063 77.4096 221.586 76.2788 221.374 74.6699C221.238 73.6378 221.655 72.6663 222.393 72.0402C221.715 71.5659 221.227 70.8298 221.109 69.9418C220.886 68.2684 222.064 66.7316 223.734 66.5077C225.404 66.2838 226.938 67.464 227.161 69.1374C227.184 69.3005 227.192 69.4599 227.188 69.6155C227.176 70.0898 227.294 70.549 227.529 70.9588C227.688 71.2358 227.798 71.5431 227.843 71.8809C227.915 72.4311 227.805 72.9623 227.559 73.4177Z" fill="#783C28"/>
<path d="M239.621 178.452C241.572 178.919 241.17 180.239 240.466 182.592C239.761 184.944 238.917 186.531 238.311 186.348C237.746 186.178 237.496 185.039 237.409 182.584C237.307 179.636 238.349 178.148 239.617 178.452H239.621Z" fill="#1E2D64"/>
<path d="M237.512 176.304L239.296 178.911C239.621 179.306 239.583 179.89 239.212 180.239C238.837 180.592 238.25 180.592 237.875 180.235L234.872 177.591L237.512 176.304Z" fill="#FFB49B"/>
<path d="M217.224 106.484C217.224 106.484 206.18 134.541 208.585 144.544C210.808 153.78 231.816 174.938 234.399 177.761C234.584 177.966 234.872 178.042 235.13 177.947C236.349 177.496 236.921 176.961 237.66 176.08C237.826 175.883 237.826 175.595 237.709 175.363C236.046 172.145 221.95 147.378 221.916 142.874C221.882 138.552 228.888 130.219 231.649 124.865C232.979 122.288 233.384 119.332 232.793 116.494C231.574 110.658 226.434 106.476 220.481 106.484H217.22H217.224Z" fill="#1E2D64"/>
<path d="M232.77 183.947C233.308 185.882 231.964 186.174 229.566 186.698C227.169 187.221 225.377 187.252 225.241 186.633C225.116 186.056 225.991 185.282 228.089 184.015C230.612 182.493 232.418 182.687 232.77 183.947Z" fill="#1E2D64"/>
<path d="M229.305 180.634L229.827 183.753C229.869 184.265 230.297 184.656 230.808 184.652C231.323 184.645 231.744 184.235 231.766 183.719L232.096 179.727L229.305 180.638V180.634Z" fill="#FFB49B"/>
<path d="M239.25 124.432C240.727 120.816 242.711 111.88 231.126 103.865C224.498 103.638 219.2 109.33 219.893 115.936C221.677 132.94 225.157 163.194 228.952 180.315C228.994 180.497 229.13 180.645 229.312 180.698C230.418 181.017 231.1 181.055 232.145 180.793C232.349 180.744 232.493 180.558 232.516 180.349L238.11 129.05C238.284 127.464 238.648 125.904 239.25 124.428V124.432Z" fill="#00558C"/>
<path d="M216.898 107.774C216.898 107.774 212.001 98.5455 212.811 92.4969C213.311 88.7669 215.281 80.8703 222.412 80.4074C227.165 80.1 234.429 80.6351 236.326 89.5789C237.186 93.6277 237.796 98.7808 235.8 104.977C235.065 107.258 233.46 111.754 231.138 112.316C229.339 112.752 222.257 116.361 216.902 107.774H216.898Z" fill="#5046AF"/>
<path d="M224.628 85.0178C225.972 84.7028 226.805 83.3557 226.491 82.0086L224.609 73.9641L219.742 75.1063L221.624 83.1508C221.939 84.4979 223.283 85.3327 224.628 85.0178Z" fill="#FFA587"/>
<path d="M221.321 81.8644C222.696 81.4964 223.775 80.2138 224.332 78.7415C224.828 77.4362 224.711 75.9752 224.097 74.723L219.859 75.6072L221.325 81.8644H221.321Z" fill="#F5876E"/>
<path d="M221.503 80.6084C223.461 80.0051 225.363 76.8252 224.76 74.8596L223.518 70.807L216.141 72.0516L217.667 77.0415C218.269 79.0033 220.647 80.8703 221.503 80.6046V80.6084Z" fill="#FFA587"/>
<path d="M225.778 73.2129C225.994 73.9224 225.604 74.67 224.907 74.8863L224.407 75.0039L223.949 72.3591C224.646 72.1428 225.563 72.5071 225.778 73.2129Z" fill="#FFA587"/>
<path d="M210.819 69.3006C210.615 68.5569 210.865 67.7638 211.459 67.2743C212.054 66.7848 212.88 66.6937 213.565 67.0391C214.682 67.6007 216.034 67.8018 216.875 67.0542C217.981 66.0676 219.326 65.4226 220.799 65.2708C220.806 65.2708 220.81 65.2708 220.818 65.2708H220.863C222.041 65.1493 223.238 65.5857 223.984 66.5078C224.404 67.0239 224.662 67.5817 224.791 68.1433C224.893 68.5872 225.181 68.9515 225.525 69.2513C225.775 69.4676 225.965 69.7484 226.067 70.0823C226.377 71.0955 225.753 72.1883 224.673 72.5222C224.226 72.6588 223.768 72.6437 223.367 72.5071C222.984 72.378 222.575 72.4122 222.189 72.5222C221.386 72.7537 220.564 72.6968 219.829 72.4008C218.784 71.9834 217.083 72.3059 216.58 72.4729C214.133 73.2812 211.509 71.8089 210.819 69.3044V69.3006Z" fill="#783C28"/>
<path d="M211.819 102.993L209.758 100.625C209.349 100.223 209.164 99.3954 209.175 98.4316C209.24 93.0281 207.891 98.4885 207.74 98.5379C207.077 98.7579 206.452 98.4809 205.441 97.5475C204.593 96.7696 204.157 96.1017 204.157 96.1017C203.116 96.9973 202.809 100.45 204.649 101.224L207.134 102.378L209.91 104.378L211.815 102.993H211.819Z" fill="#FFA587"/>
<path d="M231.232 85.9475C233.065 85.9247 234.535 87.4654 234.421 89.2981C234.024 95.692 232.986 109.167 231.134 112.312C228.71 116.433 218.776 114.684 211.796 111.269C208.698 109.755 207.573 105.85 209.387 102.913C209.452 102.811 209.516 102.708 209.58 102.606C211.254 99.9799 214.735 99.1755 217.431 100.727C220.442 102.462 224.161 104.317 225.294 103.642C226.161 103.126 227.513 93.5177 228.142 88.6948C228.346 87.1352 229.661 85.9665 231.232 85.9475Z" fill="#6E64C3"/>
<path d="M244.729 61.719L249.009 66.0067L245.402 69.621C245.032 69.9912 244.43 69.9939 244.057 69.621L240.45 66.0067L244.729 61.719Z" fill="#0091C8"/>
<path d="M230.835 45.167H258.619C259.297 45.167 259.85 45.721 259.85 46.4002V64.9444C259.85 65.6236 259.297 66.1776 258.619 66.1776H230.835C230.157 66.1776 229.604 65.6236 229.604 64.9444V46.4002C229.604 45.721 230.157 45.167 230.835 45.167Z" fill="#41B4E6"/>
<path d="M247.518 51.3028C247.62 50.8968 247.564 50.4491 247.306 50.1227C247.049 49.7964 246.643 49.5877 246.189 49.5991C245.867 49.6067 245.602 49.8609 245.549 50.1796L245.102 51.3711C244.799 52.1756 244.212 52.8434 243.443 53.2191C243.095 53.3899 242.773 53.72 242.697 54.3537H239.463C239.008 54.3537 238.645 54.7218 238.645 55.1733V59.1766C238.645 59.632 239.012 59.9963 239.463 59.9963H242.697C242.784 60.7324 243.401 61.3092 244.163 61.3092H248.408C249.226 61.3092 249.722 60.6641 249.889 59.8255C250.033 59.1083 250.434 57.0289 250.775 55.2682C250.999 54.1146 250.116 53.0408 248.938 53.0408H247.87C247.469 53.0408 247.173 52.6613 247.272 52.2705L247.514 51.3066L247.518 51.3028Z" fill="white"/>
<path d="M111.323 57.5867C111.323 57.5867 111.706 57.1617 112.44 56.4369" stroke="white" stroke-width="1.59" stroke-miterlimit="10"/>
<path d="M114.856 54.1981C126.029 44.3929 162.637 19.0146 209.175 56.9226" stroke="white" stroke-width="1.59" stroke-miterlimit="10"/>
<path d="M210.444 57.9738C210.853 58.3153 211.262 58.6606 211.671 59.0097" stroke="white" stroke-width="1.59" stroke-miterlimit="10"/>
<path d="M214.326 55.6704V61.8404H208.168" stroke="white" stroke-width="1.59" stroke-miterlimit="10"/>
<path d="M134.392 128.47V122.303H140.55" stroke="white" stroke-width="1.59" stroke-miterlimit="10"/>
<path d="M189.435 36.2118H183.277V30.0417" stroke="white" stroke-width="1.59" stroke-miterlimit="10"/>
<path d="M223.017 56.2282C223.017 33.1268 203.956 21.576 186.36 33.7225" stroke="white" stroke-width="1.59" stroke-miterlimit="10"/>
<path d="M205.074 119.052C205.074 119.052 177.729 143.417 136.35 124.569" stroke="white" stroke-width="1.59" stroke-miterlimit="10"/>
<path d="M155.43 99.3956C155.43 99.3956 160.047 99.5095 160.069 100.052C160.122 101.35 153.438 101.585 152.317 102.777C152.044 103.065 154.248 102.617 154.21 103.179C154.112 104.598 147.23 103.896 147.23 103.896V100.815C150.381 99.3121 155.434 99.3956 155.434 99.3956H155.43Z" fill="#FFB49B"/>
<path d="M111.751 87.7766C113.751 82.8094 111.232 77.1365 106.135 75.3341C101.526 73.7024 96.303 75.9906 94.3601 80.4872C94.1063 81.0753 93.917 81.6749 93.7882 82.2782C93.4095 84.0541 92.4665 85.682 90.9894 86.7331C89.7245 87.6324 88.7436 88.7973 88.0732 90.0989C87.0469 92.0872 85.2138 93.495 83.1232 94.2919C79.9343 95.5061 77.2908 98.132 76.2001 101.744C74.4541 107.52 77.6165 113.781 83.2709 115.857C89.5162 118.152 95.9432 114.638 98.0072 108.973C99.0639 106.078 100.708 103.395 102.942 101.274C103.889 100.375 104.665 99.259 105.188 97.965C105.196 97.9499 105.199 97.9347 105.207 97.9195C106.233 95.3354 107.653 92.9182 109.63 90.9678C110.52 90.0875 111.251 89.0136 111.751 87.7766Z" fill="#00558C"/>
<path d="M94.3904 190.568C94.8184 192.382 93.561 192.602 91.3227 193.001C89.0844 193.399 87.418 193.361 87.3158 192.784C87.2211 192.245 88.0581 191.559 90.0502 190.462C92.4438 189.145 94.1102 189.388 94.3904 190.568Z" fill="#E16450"/>
<path d="M94.0872 187.396L93.6403 190.295C93.61 190.769 93.2161 191.141 92.7389 191.141C92.2617 191.141 91.8641 190.765 91.8376 190.287L91.4854 186.588L94.0834 187.4L94.0872 187.396Z" fill="#FFB49B"/>
<path d="M113.425 190.731C113.081 192.56 114.349 192.724 116.603 193.02C118.86 193.316 120.519 193.198 120.594 192.617C120.666 192.075 119.795 191.43 117.754 190.424C115.304 189.217 113.649 189.54 113.425 190.731Z" fill="#E16450"/>
<path d="M113.759 187.76L114.376 190.629C114.437 191.103 114.85 191.449 115.323 191.418C115.8 191.388 116.171 190.993 116.171 190.511L116.304 186.796L113.759 187.76Z" fill="#FFB49B"/>
<path d="M109.494 116.551C109.494 116.551 113.804 120.611 115.808 128.986C117.713 136.932 117.126 182.702 117.061 187.347C117.061 187.574 116.91 187.775 116.69 187.828C115.758 188.06 114.77 188.102 113.679 187.813C113.501 187.764 113.361 187.616 113.319 187.438L99.083 126.83L102.045 116.555H109.494V116.551Z" fill="#1C9585"/>
<path d="M87.2518 136.916C87.2518 136.916 86.8504 124.527 95.5308 116.558H106.317C106.317 116.558 100.375 164.704 94.5121 187.464C94.4704 187.631 94.3378 187.764 94.1712 187.806C93.1335 188.068 92.1261 188.105 91.1641 187.832C90.9785 187.779 90.846 187.605 90.8346 187.411L87.248 136.92L87.2518 136.916Z" fill="#39AE96"/>
<path d="M111.119 118.63C111.119 118.63 115.383 106.81 114.273 101.263C113.588 97.8398 110.948 91.4915 104.32 91.4915C99.9007 91.4915 90.7431 93.3925 91.5801 103.156C91.9777 107.812 92.7996 113.42 97.0413 118.642C97.0413 118.642 104.533 122.224 111.122 118.634L111.119 118.63Z" fill="#EB5A7D"/>
<path d="M102.636 96.0146C101.386 95.7262 100.609 94.4816 100.894 93.2294L102.605 85.7578L107.124 86.7975L105.412 94.2691C105.124 95.5213 103.882 96.2992 102.632 96.0146H102.636Z" fill="#FFA587"/>
<path d="M105.343 92.5122C105.495 92.5463 105.65 92.5653 105.805 92.5767L107.127 86.8013L102.609 85.7616L102.415 86.604C101.9 88.8542 103.097 91.9961 105.343 92.5122Z" fill="#F5876E"/>
<path d="M106.172 91.4421C104.195 90.9867 102.09 87.9814 102.544 85.9968L103.483 81.9062L110.649 83.5531L109.71 87.6437C109.255 89.6244 107.039 91.6394 106.176 91.4383L106.172 91.4421Z" fill="#FFB49B"/>
<path d="M101.48 83.8112C101.276 84.6954 101.821 85.5795 102.696 85.7806L103.431 82.5742C102.556 82.3731 101.685 82.9271 101.48 83.815V83.8112Z" fill="#FFA587"/>
<path d="M110.77 83.0181L104.733 81.6293L104.43 82.9612C103.805 82.8549 103.199 83.2534 103.051 83.8871C103.014 84.0502 103.014 84.2134 103.04 84.369C103.203 84.3462 103.358 84.3083 103.506 84.2437C103.82 84.1109 104.161 84.0996 104.494 84.1754C105.218 84.3386 105.945 84.2362 106.577 83.9288C107.46 83.5 108.494 83.4203 109.403 83.7884C109.596 83.8643 109.797 83.9288 110.005 83.9781C110.175 84.0161 110.365 84.0426 110.531 84.0578L110.77 83.0181Z" fill="#FFA587"/>
<path d="M113.277 72.7651C111.713 72.4502 110.164 72.8524 108.979 73.7517C107.733 74.6928 106.169 75.0381 104.612 74.9888C104.593 74.9888 104.574 74.9888 104.555 74.9888C102.821 74.9546 101.188 75.9943 100.503 77.5918C100.412 77.8043 100.34 78.0168 100.283 78.2293C100.098 78.9351 99.7984 79.622 99.3213 80.1722C99.0978 80.4302 98.9349 80.7376 98.8554 81.0867C98.5752 82.3047 99.4008 83.538 100.7 83.8339C101.238 83.9592 101.772 83.8985 102.234 83.7011C102.658 83.5228 103.12 83.5076 103.571 83.6101C104.551 83.8302 105.532 83.6936 106.388 83.2761C107.581 82.6956 108.979 82.5855 110.21 83.0864C110.467 83.1927 110.74 83.2761 111.02 83.3407C113.978 84.0199 116.925 82.1264 117.523 79.1249C118.083 76.3207 116.084 73.3267 113.285 72.7651H113.277Z" fill="#00558C"/>
<path d="M104.658 96.0715C105.54 94.0984 107.797 93.1535 109.82 93.9048C114.857 95.7794 123.897 98.9137 128.199 98.9782C130.794 99.0162 136.081 97.9005 140.387 96.8684C144.004 95.9995 147.613 98.3104 148.355 101.961C149.124 105.748 146.492 109.379 142.659 109.816C137.429 110.411 130.71 110.969 127.616 110.366C122.541 109.375 111.997 104.207 106.528 101.411C104.586 100.416 103.76 98.0713 104.654 96.0753L104.658 96.0715Z" fill="#EB5A7D"/>
<path d="M132.942 102.263L132.291 101.235C132.222 101.127 132.08 101.095 131.972 101.164L123.138 106.783C123.03 106.852 122.998 106.995 123.066 107.103L123.718 108.131C123.786 108.239 123.929 108.271 124.037 108.202L132.871 102.583C132.979 102.514 133.011 102.371 132.942 102.263Z" fill="#827DDC"/>
<path d="M123.132 107.201L122.136 105.668C122.03 105.505 122.079 105.285 122.246 105.182L130.877 99.6915C131.04 99.5853 131.26 99.6346 131.362 99.8016L132.358 101.335C132.464 101.498 132.415 101.718 132.248 101.82L123.617 107.311C123.454 107.417 123.234 107.368 123.132 107.201Z" fill="#41378C"/>
<path d="M128.264 107.254C128.264 107.254 132.055 104.613 131.775 104.146C131.104 103.035 125.37 106.632 123.806 106.15C123.166 105.953 124.272 103.869 123.602 103.915C122.185 104.01 119.591 108.886 119.591 108.886L120.632 110.593C124.09 110.108 128.26 107.254 128.26 107.254H128.264Z" fill="#FFB49B"/>
<path d="M121.45 109.63C123.621 112.995 122.181 117.507 118.466 118.987C112.168 121.492 103.336 124.353 99.7834 122.406C94.8902 119.727 93.4245 104.033 93.0344 97.8968C92.9435 96.47 93.8752 95.1874 95.2538 94.8231C96.8634 94.4019 98.5033 95.3809 98.9009 96.9974C100.071 101.756 102.654 110.685 105.779 111.637C106.964 111.997 109.581 110.108 111.906 108.131C114.834 105.638 119.269 106.268 121.363 109.493C121.39 109.535 121.42 109.58 121.447 109.622L121.45 109.63Z" fill="#FF6B8F"/>
<path d="M90.3496 41.6178L94.6291 45.9055L91.0218 49.5198C90.6522 49.89 90.0497 49.8927 89.6774 49.5198L86.0701 45.9055L90.3496 41.6178Z" fill="#FA870A"/>
<path d="M104.904 23.887H75.7877C75.0765 23.887 74.5 24.4646 74.5 25.1771V44.6092C74.5 45.3218 75.0765 45.8994 75.7877 45.8994H104.904C105.615 45.8994 106.192 45.3218 106.192 44.6092V25.1771C106.192 24.4646 105.615 23.887 104.904 23.887Z" fill="#FFC305"/>
<path d="M91.718 28.6492C87.6135 28.6492 84.8185 32.8163 86.3666 36.6249L87.0291 38.2528C87.058 38.3238 87.0633 38.4023 87.0441 38.4765C87.0249 38.5507 86.9823 38.6168 86.9226 38.6648L85.5215 39.791C85.4642 39.8371 85.4225 39.9 85.4023 39.9708C85.3821 40.0417 85.3844 40.117 85.4088 40.1865C85.4332 40.256 85.4785 40.3162 85.5385 40.3588C85.5985 40.4014 85.6703 40.4243 85.7438 40.4243H91.2969C92.1113 40.4244 92.9177 40.2637 93.67 39.9516C94.4224 39.6394 95.1061 39.1818 95.6819 38.6049C96.2578 38.0279 96.7146 37.343 97.0263 36.5892C97.3379 35.8354 97.4983 35.0275 97.4983 34.2116C97.4983 31.1394 95.0129 28.6492 91.9467 28.6492H91.718Z" fill="white"/>
</g>
<defs>
<clipPath id="clip0_209_1943">
<rect width="336" height="227" fill="white"/>
</clipPath>
</defs>
</svg>
