<svg width="27" height="27" viewBox="0 0 27 27" fill="none" xmlns="http://www.w3.org/2000/svg">
<g clip-path="url(#clip0_1_651)">
<path d="M10.5262 4.34324C8.56697 5.02292 6.87733 6.31297 5.70546 8.02391C4.53359 9.73484 3.94127 11.7765 4.01549 13.8489C4.08972 15.9214 4.82658 17.9154 6.11784 19.5381C7.4091 21.1609 9.1867 22.3267 11.1895 22.8645C12.8133 23.2835 14.5145 23.3019 16.1469 22.9181C17.6257 22.5859 18.9929 21.8754 20.1147 20.8561C21.2821 19.7628 22.1295 18.372 22.5658 16.8332C23.0398 15.1598 23.1242 13.4 22.8124 11.6889H13.6943V15.4713H18.9749C18.8694 16.0746 18.6432 16.6503 18.31 17.1642C17.9767 17.678 17.5432 18.1193 17.0355 18.4617C16.3907 18.8884 15.6638 19.1754 14.9015 19.3043C14.1369 19.4464 13.3527 19.4464 12.5882 19.3043C11.8133 19.1442 11.0802 18.8244 10.4358 18.3652C9.40045 17.6323 8.62303 16.5911 8.2145 15.3901C7.79917 14.1667 7.79917 12.8404 8.2145 11.6169C8.5053 10.7594 8.98604 9.97857 9.62083 9.3328C10.3473 8.58023 11.267 8.04228 12.279 7.77799C13.291 7.5137 14.3563 7.53327 15.358 7.83455C16.1405 8.07465 16.8561 8.49433 17.4475 9.06011C18.043 8.46776 18.6374 7.87387 19.2307 7.27846C19.5371 6.95828 19.8711 6.65342 20.1729 6.32559C19.2699 5.48534 18.2099 4.83148 17.0538 4.40146C14.9485 3.637 12.6449 3.61646 10.5262 4.34324Z" fill="#1A1A1A"/>
<path d="M10.5263 4.34326C12.6448 3.61597 14.9484 3.63598 17.054 4.39994C18.2103 4.83288 19.2697 5.48989 20.1715 6.33326C19.8651 6.66109 19.5418 6.96748 19.2293 7.28613C18.6349 7.8795 18.041 8.47084 17.4477 9.06013C16.8562 8.49434 16.1406 8.07466 15.3581 7.83457C14.3568 7.53222 13.2915 7.51152 12.2792 7.77473C11.2669 8.03794 10.3466 8.5749 9.61941 9.32668C8.98462 9.97246 8.50389 10.7533 8.21308 11.6108L5.03735 9.15204C6.17407 6.89787 8.14223 5.17361 10.5263 4.34326Z" fill="#E33629"/>
<path d="M4.19484 11.5878C4.36541 10.7419 4.6488 9.9226 5.03741 9.15204L8.21314 11.6169C7.79781 12.8404 7.79781 14.1667 8.21314 15.3901C7.15507 16.2072 6.0965 17.0283 5.03741 17.8535C4.06486 15.9176 3.76824 13.7119 4.19484 11.5878Z" fill="#F8BD00"/>
<path d="M13.6943 11.6874H22.8124C23.1242 13.3985 23.0398 15.1583 22.5658 16.8317C22.1296 18.3705 21.2821 19.7613 20.1147 20.8546C19.0898 20.0549 18.0603 19.2614 17.0355 18.4617C17.5436 18.119 17.9773 17.6772 18.3105 17.1628C18.6438 16.6485 18.8698 16.0721 18.9749 15.4683H13.6943C13.6928 14.209 13.6943 12.9482 13.6943 11.6874Z" fill="#587DBD"/>
<path d="M5.03564 17.8535C6.09473 17.0365 7.15331 16.2153 8.21137 15.3901C8.62072 16.5915 9.39925 17.6327 10.4358 18.3652C11.0822 18.8223 11.8168 19.1395 12.5927 19.2966C13.3573 19.4388 14.1415 19.4388 14.906 19.2966C15.6683 19.1677 16.3953 18.8807 17.04 18.454C18.0649 19.2537 19.0943 20.0473 20.1192 20.8469C18.9977 21.8668 17.6304 22.5779 16.1515 22.9105C14.519 23.2942 12.8178 23.2758 11.1941 22.8569C9.90985 22.514 8.71029 21.9095 7.6706 21.0813C6.57024 20.2075 5.67146 19.1065 5.03564 17.8535Z" fill="#00BA64"/>
</g>
<defs>
<clipPath id="clip0_1_651">
<rect width="19.6089" height="19.6089" fill="white" transform="translate(3.69531 3.6983)"/>
</clipPath>
</defs>
</svg>
