<svg width="23" height="22" viewBox="0 0 23 22" fill="none" xmlns="http://www.w3.org/2000/svg">
<path d="M8.375 16.25C7.96079 16.25 7.625 16.5858 7.625 17C7.625 17.4142 7.96079 17.75 8.375 17.75H14.375C14.7892 17.75 15.125 17.4142 15.125 17C15.125 16.5858 14.7892 16.25 14.375 16.25H8.375Z" fill="#ABB7C2"/>
<path fill-rule="evenodd" clip-rule="evenodd" d="M11.375 0.25C10.6669 0.25 10.0235 0.45282 9.32555 0.79224C8.65085 1.12035 7.87142 1.60409 6.89786 2.20832L4.83128 3.4909C3.91009 4.06261 3.17244 4.5204 2.6039 4.95581C2.01515 5.40669 1.56295 5.86589 1.23631 6.46263C0.910355 7.05812 0.763567 7.69174 0.69319 8.4407C0.624986 9.16654 0.624992 10.0541 0.625 11.1672V12.7799C0.624986 14.6837 0.624975 16.1866 0.777703 17.3616C0.934372 18.567 1.26356 19.5401 2.00736 20.3094C2.75458 21.0824 3.70546 21.4277 4.88261 21.5914C6.02349 21.75 7.48056 21.75 9.31685 21.75H13.4331C15.2694 21.75 16.7265 21.75 17.8674 21.5914C19.0445 21.4277 19.9954 21.0824 20.7426 20.3094C21.4864 19.5401 21.8156 18.567 21.9723 17.3616C22.125 16.1866 22.125 14.6838 22.125 12.7799V11.1672C22.125 10.0541 22.125 9.16652 22.0568 8.4407C21.9864 7.69174 21.8396 7.05812 21.5137 6.46263C21.1871 5.86589 20.7349 5.40669 20.1461 4.95581C19.5776 4.5204 18.8399 4.06262 17.9187 3.49091L15.8521 2.20831C14.8786 1.60409 14.0991 1.12034 13.4244 0.79224C12.7265 0.452819 12.0831 0.25 11.375 0.25ZM7.65453 3.50412C8.67029 2.87371 9.3845 2.43153 9.98154 2.1412C10.5632 1.85833 10.9752 1.75 11.375 1.75C11.7748 1.75 12.1868 1.85833 12.7685 2.14119C13.3655 2.43153 14.0797 2.87371 15.0955 3.50412L17.0955 4.74537C18.0563 5.34169 18.7309 5.76135 19.2341 6.1467C19.7237 6.52164 20.0053 6.83106 20.1979 7.18285C20.3912 7.53589 20.504 7.94865 20.5634 8.58104C20.6242 9.22859 20.625 10.0458 20.625 11.2039V12.725C20.625 14.6959 20.6235 16.1012 20.4848 17.1683C20.3486 18.2163 20.092 18.8244 19.6642 19.2669C19.2399 19.7058 18.6621 19.9664 17.6608 20.1057C16.6352 20.2483 15.2825 20.25 13.375 20.25H9.375C7.46747 20.25 6.11483 20.2483 5.08922 20.1057C4.08786 19.9664 3.51014 19.7058 3.08579 19.2669C2.65801 18.8244 2.40142 18.2163 2.26519 17.1683C2.12649 16.1012 2.125 14.6959 2.125 12.725V11.2039C2.125 10.0458 2.12576 9.22859 2.18661 8.58104C2.24603 7.94865 2.35885 7.53589 2.55209 7.18285C2.74465 6.83106 3.02633 6.52164 3.51592 6.1467C4.0191 5.76135 4.69369 5.34169 5.65453 4.74537L7.65453 3.50412Z" fill="#ABB7C2"/>
</svg>
